<?xml version="1.0" encoding="utf-8"?>
<COLLADA xmlns="http://www.collada.org/2005/11/COLLADASchema" version="1.4.1" xmlns:xsi="http://www.w3.org/2001/XMLSchema-instance">
  <asset>
    <contributor>
      <author>Blender User</author>
      <authoring_tool>Blender 4.3.2 commit date:2024-12-16, commit time:21:10, hash:32f5fdce0a0a</authoring_tool>
    </contributor>
    <created>2025-07-17T02:58:52</created>
    <modified>2025-07-17T02:58:52</modified>
    <unit name="meter" meter="1"/>
    <up_axis>Z_UP</up_axis>
  </asset>
  <library_effects>
    <effect id="maters_road_compactor_mat-effect">
      <profile_COMMON>
        <newparam sid="maters_road_compactor_diff_png-surface">
          <surface type="2D">
            <init_from>maters_road_compactor_diff_png</init_from>
          </surface>
        </newparam>
        <newparam sid="maters_road_compactor_diff_png-sampler">
          <sampler2D>
            <source>maters_road_compactor_diff_png-surface</source>
          </sampler2D>
        </newparam>
        <technique sid="common">
          <lambert>
            <emission>
              <color sid="emission">0 0 0 1</color>
            </emission>
            <diffuse>
              <texture texture="maters_road_compactor_diff_png-sampler" texcoord="GeometrySource2"/>
            </diffuse>
            <index_of_refraction>
              <float sid="ior">1.55</float>
            </index_of_refraction>
          </lambert>
        </technique>
      </profile_COMMON>
    </effect>
  </library_effects>
  <library_images>
    <image id="maters_road_compactor_diff_png" name="maters_road_compactor_diff_png">
      <init_from>maters_road_compactor_diff.png</init_from>
    </image>
  </library_images>
  <library_materials>
    <material id="maters_road_compactor_mat-material" name="maters_road_compactor_mat">
      <instance_effect url="#maters_road_compactor_mat-effect"/>
    </material>
  </library_materials>
  <library_geometries>
    <geometry id="maters_road_compactor-mesh" name="maters_road_compactor">
      <mesh>
        <source id="maters_road_compactor-mesh-positions">
          <float_array id="maters_road_compactor-mesh-positions-array" count="1293">445.528 477.346 -363.892 445.528 543.15 -352.289 445.528 534.557 -328.68 445.528 477.346 -338.768 445.528 601.018 -318.879 445.528 584.8681 -299.633 445.528 643.968 -267.693 445.528 622.21 -255.13 445.528 666.822 -204.903 445.528 642.08 -200.54 445.528 666.822 -138.083 445.528 642.08 -142.446 445.528 643.968 -75.2932 445.528 622.21 -87.8553 445.528 601.018 -24.1065 445.528 584.8681 -43.3527 445.528 543.15 9.30333 445.528 534.557 -14.3057 445.528 477.346 20.9064 445.528 477.346 -4.21776 445.528 411.541 9.30334 445.528 420.134 -14.3057 445.528 353.674 -24.1064 445.528 369.823 -43.3527 445.528 310.723 -75.2932 445.528 332.481 -87.8553 445.528 287.869 -138.083 445.528 312.612 -142.446 445.528 287.869 -204.903 445.528 312.612 -200.54 445.528 310.723 -267.692 445.528 332.481 -255.13 445.528 353.674 -318.879 445.528 369.823 -299.633 445.528 411.541 -352.289 445.528 420.134 -328.68 423.528 477.346 -332.807 423.528 532.518 -323.079 423.528 477.346 -171.493 423.528 581.0371 -295.067 423.528 617.048 -252.15 423.528 636.2091 -199.505 423.528 636.2091 -143.481 423.528 617.048 -90.8357 423.528 581.0371 -47.9189 423.528 532.518 -19.907 423.528 477.346 -10.1785 423.528 422.173 -19.9069 423.528 373.655 -47.9189 423.528 337.643 -90.8356 423.528 318.482 -143.481 423.528 318.482 -199.505 423.528 337.643 -252.15 423.528 373.655 -295.067 423.528 422.173 -323.079 438.528 546.004 -360.131 438.528 477.346 -372.237 438.528 606.382 -325.272 438.528 651.195 -271.865 438.528 675.04 -206.352 438.528 675.04 -136.634 438.528 651.195 -71.1207 438.528 606.382 -17.7138 438.528 546.004 17.1451 438.528 477.346 29.2514 438.528 408.687 17.1451 438.528 348.31 -17.7138 438.528 303.496 -71.1207 438.528 279.651 -136.634 438.528 279.651 -206.352 438.528 303.496 -271.865 438.528 348.31 -325.272 438.528 408.687 -360.131 438.528 546.004 -360.131 438.528 477.346 -372.237 2e-5 477.346 -372.237 2e-5 546.004 -360.131 438.528 606.382 -325.272 2e-5 606.382 -325.272 438.528 651.195 -271.865 2e-5 651.195 -271.865 438.528 675.04 -206.352 2e-5 675.04 -206.352 438.528 675.04 -136.634 2e-5 675.04 -136.634 438.528 651.195 -71.1207 2e-5 651.195 -71.1208 438.528 606.382 -17.7138 2e-5 606.382 -17.7138 438.528 546.004 17.1451 2e-5 546.004 17.1451 438.528 477.346 29.2514 2e-5 477.346 29.2514 438.528 408.687 17.1451 2e-5 408.687 17.1451 438.528 348.31 -17.7138 2e-5 348.31 -17.7138 438.528 303.496 -71.1207 2e-5 303.496 -71.1207 438.528 279.651 -136.634 2e-5 279.651 -136.634 438.528 279.651 -206.352 2e-5 279.651 -206.352 438.528 303.496 -271.865 2e-5 303.496 -271.865 438.528 348.31 -325.272 2e-5 348.31 -325.272 438.528 408.687 -360.131 2e-5 408.687 -360.131 438.528 477.346 -372.237 2e-5 477.346 -372.237 476.933 477.346 -218.261 476.933 493.341 -215.441 476.933 477.346 -171.493 476.933 507.408 -207.32 476.933 517.848 -194.877 476.933 523.4041 -179.614 476.933 523.4041 -163.372 476.933 517.848 -148.109 476.933 507.408 -135.666 476.933 493.341 -127.545 476.933 477.346 -124.724 476.933 461.35 -127.545 476.933 447.284 -135.666 476.933 436.843 -148.109 476.933 431.288 -163.372 476.933 431.288 -179.614 476.933 436.843 -194.877 476.933 447.284 -207.319 476.933 461.35 -215.441 418.02 477.346 -231.351 418.02 497.818 -227.741 418.02 515.822 -217.347 418.02 529.184 -201.422 418.02 536.2951 -181.887 418.02 536.2951 -161.099 418.02 529.184 -141.564 418.02 515.822 -125.639 418.02 497.818 -115.245 418.02 477.346 -111.635 418.02 456.873 -115.244 418.02 438.87 -125.639 418.02 425.507 -141.564 418.02 418.397 -161.099 418.02 418.397 -181.887 418.02 425.507 -201.422 418.02 438.87 -217.347 418.02 456.873 -227.741 449.267 273.453 -231.194 449.267 265.331 -185.127 2e-5 264.572 -185.261 2e-5 272.695 -231.328 465.491 452.938 -199.546 465.491 444.816 -153.479 464.845 283.619 -181.903 464.845 291.742 -227.969 2e-5 279.471 -182.634 444.411 279.095 -182.7 444.411 287.218 -228.767 2e-5 287.593 -228.701 453.121 289.321 -180.897 452.801 444.816 -153.479 452.801 452.938 -199.546 453.121 297.443 -226.964 2e-5 287.593 -228.701 444.411 287.218 -228.767 453.121 297.443 -226.964 452.801 452.938 -199.546 475.546 281.16 -118.642 475.546 435.057 -169.259 475.546 443.514 -146.021 475.546 289.016 -95.1923 204.987 13.4756 -11.7047 454.437 233.151 -101.743 454.437 241.008 -78.291 204.987 21.3324 11.7474 461.276 443.514 -146.021 461.276 435.057 -169.259 461.474 283.047 -119.274 461.476 290.912 -95.8274 442.088 246.696 -80.1965 442.055 238.792 -103.633 194.168 20.8764 -14.1841 194.168 28.7332 9.268051 461.474 283.047 -119.274 461.276 435.057 -169.259 194.168 20.8764 -14.1841 442.055 238.792 -103.633 204.987 -13.3221 11.7474 204.987 -13.4023 -11.7047 194.168 -13.3267 -14.1841 194.168 -13.2465 9.26808 194.168 -13.3267 -14.1841 438.631 627.653 -84.6073 438.631 651.455 -151.202 468.771 651.455 -151.202 468.771 627.653 -84.6073 438.631 588.952 -38.4853 468.771 588.952 -38.4853 438.631 536.731 -8.33519 468.771 536.73 -8.33492 438.631 477.347 2.13591 468.771 477.345 2.1362 438.631 418.053 -8.3188 468.771 418.053 -8.31877 438.631 357.013 -44.0337 468.771 357.013 -44.0337 468.771 338.438 -9.470601 455.911 330.964 3.80661 438.63 345.169 -21.4259 2e-5 675.457 -58.4893 455.911 675.457 -58.4892 455.911 702.578 -134.906 2e-5 702.578 -134.906 455.911 624.487 3.80659 2e-5 624.487 3.8065 455.911 555.8161 44.4673 2e-5 555.8161 44.4672 455.911 477.725 58.5886 2e-5 477.725 58.5885 455.911 399.635 44.4673 2e-5 399.635 44.4672 2e-5 330.964 3.80655 438.631 675.8811 -144.871 2e-5 675.8811 -144.872 2e-5 345.169 -21.426 468.771 688.53 -140.15 468.771 662.5111 -66.1548 468.771 614.8781 -7.93777 468.771 550.703 30.0607 468.771 477.725 43.2574 468.771 404.748 30.0607 -445.528 477.346 -363.892 -445.528 477.346 -338.768 -445.528 534.557 -328.68 -445.528 543.15 -352.289 -445.528 584.8681 -299.633 -445.528 601.018 -318.879 -445.528 622.21 -255.13 -445.528 643.968 -267.693 -445.528 642.08 -200.54 -445.528 666.822 -204.903 -445.528 642.08 -142.446 -445.528 666.822 -138.083 -445.528 622.21 -87.8553 -445.528 643.968 -75.2932 -445.528 584.8681 -43.3527 -445.528 601.018 -24.1065 -445.528 534.557 -14.3057 -445.528 543.15 9.30333 -445.528 477.346 -4.21776 -445.528 477.346 20.9064 -445.528 420.134 -14.3057 -445.528 411.541 9.30334 -445.528 369.823 -43.3527 -445.528 353.674 -24.1064 -445.528 332.481 -87.8553 -445.528 310.723 -75.2932 -445.528 312.612 -142.446 -445.528 287.869 -138.083 -445.528 312.612 -200.54 -445.528 287.869 -204.903 -445.528 332.481 -255.13 -445.528 310.723 -267.692 -445.528 369.823 -299.633 -445.528 353.674 -318.879 -445.528 420.134 -328.68 -445.528 411.541 -352.289 -423.528 477.346 -332.807 -423.528 477.346 -171.493 -423.528 532.518 -323.079 -423.528 581.0371 -295.067 -423.528 617.048 -252.15 -423.528 636.2091 -199.505 -423.528 636.2091 -143.481 -423.528 617.048 -90.8357 -423.528 581.0371 -47.9189 -423.528 532.518 -19.907 -423.528 477.346 -10.1785 -423.528 422.173 -19.9069 -423.528 373.655 -47.9189 -423.528 337.643 -90.8356 -423.528 318.482 -143.481 -423.528 318.482 -199.505 -423.528 337.643 -252.15 -423.528 373.655 -295.067 -423.528 422.173 -323.079 -438.528 546.004 -360.131 -438.528 477.346 -372.237 -438.528 606.382 -325.272 -438.528 651.195 -271.865 -438.528 675.04 -206.352 -438.528 675.04 -136.634 -438.528 651.195 -71.1207 -438.528 606.382 -17.7138 -438.528 546.004 17.1451 -438.528 477.346 29.2514 -438.528 408.687 17.1451 -438.528 348.31 -17.7138 -438.528 303.496 -71.1207 -438.528 279.651 -136.634 -438.528 279.651 -206.352 -438.528 303.496 -271.865 -438.528 348.31 -325.272 -438.528 408.687 -360.131 -438.528 546.004 -360.131 -438.528 477.346 -372.237 -438.528 606.382 -325.272 -438.528 651.195 -271.865 -438.528 675.04 -206.352 -438.528 675.04 -136.634 -438.528 651.195 -71.1207 -438.528 606.382 -17.7138 -438.528 546.004 17.1451 -438.528 477.346 29.2514 -438.528 408.687 17.1451 -438.528 348.31 -17.7138 -438.528 303.496 -71.1207 -438.528 279.651 -136.634 -438.528 279.651 -206.352 -438.528 303.496 -271.865 -438.528 348.31 -325.272 -438.528 408.687 -360.131 -438.528 477.346 -372.237 -476.933 477.346 -218.261 -476.933 477.346 -171.493 -476.933 493.341 -215.441 -476.933 507.408 -207.32 -476.933 517.848 -194.877 -476.933 523.4041 -179.614 -476.933 523.4041 -163.372 -476.933 517.848 -148.109 -476.933 507.408 -135.666 -476.933 493.341 -127.545 -476.933 477.346 -124.724 -476.933 461.35 -127.545 -476.933 447.284 -135.666 -476.933 436.843 -148.109 -476.933 431.288 -163.372 -476.933 431.288 -179.614 -476.933 436.843 -194.877 -476.933 447.284 -207.319 -476.933 461.35 -215.441 -418.02 497.818 -227.741 -418.02 477.346 -231.351 -418.02 515.822 -217.347 -418.02 529.184 -201.422 -418.02 536.2951 -181.887 -418.02 536.2951 -161.099 -418.02 529.184 -141.564 -418.02 515.822 -125.639 -418.02 497.818 -115.245 -418.02 477.346 -111.635 -418.02 456.873 -115.244 -418.02 438.87 -125.639 -418.02 425.507 -141.564 -418.02 418.397 -161.099 -418.02 418.397 -181.887 -418.02 425.507 -201.422 -418.02 438.87 -217.347 -418.02 456.873 -227.741 -449.267 273.453 -231.194 -449.267 265.331 -185.127 -465.491 452.938 -199.546 -464.845 291.742 -227.969 -464.845 283.619 -181.903 -465.491 444.816 -153.479 -444.411 287.218 -228.767 -444.411 279.095 -182.7 -453.121 289.321 -180.897 -453.121 297.443 -226.964 -452.801 452.938 -199.546 -452.801 444.816 -153.479 -444.411 287.218 -228.767 -453.121 297.443 -226.964 -452.801 452.938 -199.546 -475.546 281.16 -118.642 -475.546 289.016 -95.1923 -475.546 443.514 -146.021 -475.546 435.057 -169.259 -204.987 13.4756 -11.7047 -204.987 21.3324 11.7474 -454.437 241.008 -78.291 -454.437 233.151 -101.743 -461.276 443.514 -146.021 -461.476 290.912 -95.8274 -461.474 283.047 -119.274 -461.276 435.057 -169.259 -442.088 246.696 -80.1965 -194.168 28.7332 9.268051 -194.168 20.8764 -14.1841 -442.055 238.792 -103.633 -461.474 283.047 -119.274 -461.276 435.057 -169.259 -194.168 20.8764 -14.1841 -442.055 238.792 -103.633 -204.987 -13.4023 -11.7047 -204.987 -13.3221 11.7474 -194.168 -13.2465 9.26808 -194.168 -13.3267 -14.1841 -194.168 -13.3267 -14.1841 -438.631 627.653 -84.6073 -468.771 627.653 -84.6073 -468.771 651.455 -151.202 -438.631 651.455 -151.202 -438.631 588.952 -38.4853 -468.771 588.952 -38.4853 -438.631 536.731 -8.33519 -468.771 536.73 -8.33492 -438.631 477.347 2.13591 -468.771 477.345 2.1362 -438.631 418.053 -8.3188 -468.771 418.053 -8.31877 -438.631 357.013 -44.0337 -468.771 357.013 -44.0337 -468.771 338.438 -9.470601 -438.63 345.169 -21.4259 -455.911 330.964 3.80661 -455.911 702.578 -134.906 -455.911 675.457 -58.4892 -455.911 624.487 3.80659 -455.911 555.8161 44.4673 -455.911 477.725 58.5886 -455.911 399.635 44.4673 -438.63 675.8811 -144.871 -468.771 688.53 -140.15 -468.771 662.5111 -66.1548 -468.771 614.8781 -7.93777 -468.771 550.703 30.0607 -468.771 477.725 43.2574 -468.771 404.748 30.0607</float_array>
          <technique_common>
            <accessor source="#maters_road_compactor-mesh-positions-array" count="431" stride="3">
              <param name="X" type="float"/>
              <param name="Y" type="float"/>
              <param name="Z" type="float"/>
            </accessor>
          </technique_common>
        </source>
        <source id="maters_road_compactor-mesh-normals">
          <float_array id="maters_road_compactor-mesh-normals-array" count="1290">0.9271872 6.08453e-7 -0.3745987 0.92719 0.1281179 -0.3520007 0.8274303 -0.1920646 0.5277031 0.8274359 4.46244e-6 0.5615603 0.9271888 0.2407878 -0.2869535 0.8274284 -0.3609692 0.4301903 0.9271838 0.3244184 -0.1873047 0.8274279 -0.4863349 0.2807871 0.9271835 0.3689165 -0.0650506 0.8274425 -0.5530181 0.09751957 0.9271836 0.3689159 0.06505084 0.8274407 -0.5530226 -0.09750837 0.9271876 0.3244109 0.1872987 0.8274295 -0.4863349 -0.2807826 0.9271868 0.2407871 0.2869607 0.8274306 -0.3609698 -0.4301856 0.927187 0.1281208 0.3520079 0.8274343 -0.1920703 -0.5276948 0.9271869 -6.52502e-7 0.3745991 0.827433 -5.07247e-6 -0.5615646 0.9271864 -0.128121 0.3520092 0.827434 0.1920629 -0.527698 0.9271864 -0.2407885 0.2869604 0.827436 0.3609607 -0.4301826 0.9271873 -0.3244112 0.1872997 0.8274313 0.4863306 -0.280785 0.9271839 -0.3689154 0.06505042 0.8274304 0.5530367 -0.09751713 0.9271841 -0.3689148 -0.06505095 0.8274305 0.5530377 0.09751057 0.9271906 -0.3244043 -0.1872957 0.8274295 0.486336 0.2807806 0.9271895 -0.2407847 -0.286954 0.8274353 0.3609697 0.4301763 0.9271882 -0.1281198 -0.3520048 0.8274318 0.1920695 0.5276988 0.7626051 0 0.6468644 0.7625997 -0.2212402 0.6078608 1 0 0 0.7625926 -0.4158093 0.4955355 0.7625954 -0.5602134 0.3234338 0.7626088 -0.6370323 0.1123288 0.7626106 -0.6370305 -0.1123263 0.7625995 -0.5602065 -0.323436 0.7625949 -0.4158026 -0.4955374 0.7626029 -0.2212399 -0.6078569 0.7626003 -2.39762e-7 -0.6468701 0.7626008 0.2212429 -0.6078583 0.7626056 0.4157944 -0.4955278 0.7625973 0.5602106 -0.323434 0.7625981 0.6370458 -0.1123248 0.762598 0.6370453 0.1123284 0.7625949 0.5602104 0.3234401 0.7626026 0.4157972 0.4955302 0.7625977 0.2212383 0.6078638 0.4057642 0.3126298 -0.858847 0.4057517 3.70257e-5 -0.9139835 0.405761 0.5874894 -0.700153 0.4057838 0.7915176 -0.4569895 0.4057823 0.9000907 -0.1586747 0.4057818 0.9000784 0.1587452 0.4057518 0.7915157 0.4570213 0.4057523 0.5875024 0.7001472 0.4057508 0.3125662 0.8588765 0.4057508 -3.55989e-5 0.9139838 0.4057959 -0.3126256 0.8588336 0.4057947 -0.587512 0.7001145 0.4057533 -0.7915492 0.4569619 0.4057858 -0.9000892 0.1586742 0.4057846 -0.9000772 -0.1587454 0.4057647 -0.7915301 -0.4569851 0.4057628 -0.5874664 -0.7001714 0.4057589 -0.3126069 -0.8588578 0.4057544 0.3126167 -0.8588563 0.4057189 9.05991e-6 -0.9139979 8.32742e-6 3.37958e-5 -1 0 0.3420161 -0.9396941 0.4057552 0.587484 -0.700161 0 0.6427891 -0.7660432 0.4057536 0.7915397 -0.4569782 0 0.8660268 -0.4999975 0.4057545 0.9001 -0.1586926 0 0.9848075 -0.17365 0.4057543 0.9000999 0.1586933 0 0.9848079 0.1736482 0.4057538 0.7915279 0.4569986 0 0.8660277 0.4999963 0.4057551 0.5874882 0.7001574 0 0.6427901 0.7660424 0.4057541 0.3126161 0.8588567 0 0.3420193 0.939693 0.4057542 -1.90397e-5 0.9139822 0 1.96538e-6 1 0.4057546 -0.312603 0.8588612 0 -0.34202 0.9396928 0.405754 -0.5874821 0.7001633 0 -0.6427869 0.7660451 0.4057545 -0.7915408 0.4569755 0 -0.866024 0.5000025 0.4057545 -0.9000934 0.1587305 0 -0.9848076 0.1736494 0.4057545 -0.9000998 -0.1586939 0 -0.9848076 -0.1736491 0.4057544 -0.7915245 -0.457004 0 -0.8660244 -0.5000019 0.405754 -0.5875114 -0.7001386 0 -0.6427888 -0.7660435 0.4057549 -0.3125879 -0.8588665 0 -0.34202 -0.9396927 0.4057191 -6.86944e-6 -0.913998 -8.32742e-6 -3.1516e-5 -1 0.7472804 2.68767e-6 -0.6645089 0.7472764 0.2272627 -0.6244435 1 -1.45048e-7 0 0.7472681 0.427152 -0.5090497 0.7472821 0.5754786 -0.3322558 0.7472729 0.6544192 -0.1154073 0.7472725 0.6544196 0.1154077 0.7472836 0.5754787 0.332252 0.7472691 0.427148 0.5090517 0.7472802 0.2272768 0.6244339 0.7472669 -1.9838e-7 0.6645241 0.7472782 -0.2272816 0.6244346 0.7472768 -0.427142 0.5090454 0.7472738 -0.5754902 0.3322542 0.7472775 -0.6544178 0.1153852 0.7472777 -0.6544171 -0.1153873 0.7472708 -0.5754856 -0.3322693 0.747286 -0.4271392 -0.5090341 0.7472692 -0.2272819 -0.6244452 0.2168986 -5.54277e-6 -0.9761942 0.2168931 0.3338659 -0.9173282 0.216898 0.627483 -0.7478105 0.2168984 0.8454034 -0.4881068 0.2168997 0.9613595 -0.1695365 0.2169002 0.9613608 0.1695281 0.2168962 0.8454089 0.4880982 0.2168957 0.6274905 0.7478048 0.2168902 0.3338804 0.9173235 0.2168946 2.72304e-5 0.9761951 0.2169043 -0.3338668 0.9173252 0.2168963 -0.6274928 0.7478027 0.2168994 -0.8454049 0.4881038 0.2168999 -0.9613629 0.1695168 0.2168989 -0.9613655 -0.1695038 0.2169017 -0.8454087 -0.4880961 0.2169008 -0.6274867 -0.7478064 0.2168965 -0.3338819 -0.9173216 0.3311295 -0.5893996 -0.7368592 0.3311282 -0.8058639 0.4908539 0 -0.8194622 0.5731332 0 -0.5740185 -0.8188425 0.707972 0.1198847 -0.6959909 0.7079841 -0.1253886 0.6950081 0.7231288 -0.3715125 0.5822914 0.7231213 -0.1499398 -0.6742505 0 0.5738139 0.8189858 -0.2442275 0.3746088 0.8944391 -0.2442522 0.6579215 -0.7123764 3.37422e-5 0.8192944 -0.5733731 -0.5726493 0.06686133 0.8170694 -0.707551 -0.1241253 0.6956756 -0.7075288 0.1212645 -0.6962025 -0.572686 0.3422613 -0.744908 -2.599e-5 0.8193342 -0.5733163 -0.2442391 0.6579549 -0.7123501 -0.5726791 0.3423291 -0.7448822 -0.7075967 0.1213275 -0.6961226 0.729321 -0.3524147 -0.5864254 0.7140451 -0.2186936 -0.665066 0.6999753 0.2231881 0.6783965 0.73428 0.07430386 0.674768 0.6719747 -0.3379325 -0.6589778 0.6058777 -0.6250261 -0.4921936 0.6276592 -0.1801561 0.7573559 0.4119834 -0.09475386 0.9062512 -0.7002372 0.2222817 0.6784237 -0.7143332 -0.2194765 -0.6644984 -0.64282 -0.1238008 -0.755947 -0.6461231 0.363981 0.6708524 -0.5277338 0.6138622 0.5870863 -0.5489299 0.08422523 -0.8316141 -0.7230286 0.1596719 -0.6721121 -0.7119743 0.4417088 0.545881 -0.6428686 -0.1237428 -0.7559151 -0.7143735 -0.2194703 -0.6644572 -0.7230378 0.1597167 -0.6720915 -0.5489525 0.08425152 -0.8315966 0.626365 0 0.7795299 0.7826573 0 -0.6224529 -0.6199227 4.4272e-5 -0.7846629 -0.7815812 0 0.6238036 -0.6199837 1.37201e-5 -0.7846147 0 -0.8674694 -0.4974907 0 -0.467942 -0.8837592 0.5835311 -0.3727764 -0.7214772 0.7490768 -0.5746862 -0.329575 0 -0.6427872 -0.7660448 0.7483599 -0.4263586 -0.5081102 -1.93008e-6 -0.3420224 -0.9396919 0.748359 -0.2268591 -0.6232927 1.03405e-5 -7.74481e-6 -1 0.7483633 2.08613e-6 -0.6632891 3.89905e-6 0.3447457 -0.9386962 0.7490794 0.228384 -0.6218688 1.48923e-7 -0.2758249 -0.961208 0.5744427 -0.2234675 -0.7874503 0.7226699 -0.6862794 -0.082273 0.3280941 -0.8947988 0.3028028 -0.002146244 -0.8763875 -0.4816021 0 0.871085 0.4911325 0.4022446 0.7974255 0.4497908 0.3258253 0.8809452 -0.3431813 0 0.9063478 -0.4225325 0.4035049 0.5958205 0.6943932 0 0.6517044 0.7584731 0.4048345 0.3189435 0.8569622 0 0.3492299 0.9370372 0.4053588 -4.25181e-6 0.9141577 0 2.90715e-7 1 0.4048339 -0.3189507 0.8569598 0 -0.3492281 0.9370378 0 -0.965946 0.2587438 0.007165133 0.3164834 -0.948571 0 0.3497257 -0.9368522 0 -0.8714036 -0.4905667 0.722316 0.4574772 -0.5186272 0.9253261 0.3309633 0.1850273 0.9260753 0.24658 0.2856274 0.9266432 0.1318348 0.3520681 0.9268695 -8.56346e-7 0.3753836 0.9266455 -0.1319131 0.3520329 -0.9271871 8.02721e-7 -0.3745986 -0.8274359 4.46677e-6 0.5615604 -0.8274303 -0.1920644 0.5277031 -0.92719 0.1281178 -0.3520008 -0.8274284 -0.3609691 0.4301903 -0.9271889 0.2407872 -0.2869536 -0.8274281 -0.4863346 0.2807872 -0.9271839 0.3244181 -0.1873046 -0.8274424 -0.5530181 0.09751963 -0.9271834 0.3689166 -0.0650506 -0.8274407 -0.5530226 -0.09750831 -0.9271836 0.368916 0.06505089 -0.8274295 -0.4863348 -0.2807827 -0.9271875 0.324411 0.1872987 -0.8274306 -0.3609693 -0.4301859 -0.9271867 0.2407873 0.2869607 -0.8274342 -0.1920703 -0.5276947 -0.927187 0.1281207 0.3520079 -0.8274329 -4.74153e-6 -0.5615646 -0.9271869 -3.53916e-7 0.3745992 -0.8274339 0.192063 -0.527698 -0.9271864 -0.1281208 0.3520092 -0.8274361 0.3609604 -0.4301828 -0.9271864 -0.240789 0.2869604 -0.8274312 0.4863306 -0.2807849 -0.9271873 -0.324411 0.1872997 -0.8274304 0.5530367 -0.09751707 -0.9271839 -0.3689154 0.06505054 -0.8274305 0.5530377 0.09751051 -0.9271841 -0.3689147 -0.06505095 -0.8274295 0.4863359 0.2807808 -0.9271906 -0.3244043 -0.1872959 -0.8274353 0.3609699 0.4301762 -0.9271893 -0.2407851 -0.2869539 -0.8274318 0.1920695 0.5276988 -0.9271882 -0.1281195 -0.3520048 -0.762605 0 0.6468645 -1 0 0 -0.7625995 -0.2212399 0.6078609 -0.7625925 -0.4158092 0.4955354 -0.7625955 -0.5602132 0.3234338 -0.7626088 -0.6370323 0.1123289 -0.7626106 -0.6370306 -0.1123263 -0.7625995 -0.5602063 -0.3234361 -0.7625949 -0.4158023 -0.4955375 -0.7626028 -0.2212396 -0.6078569 -0.7626003 -1.86475e-7 -0.64687 -0.7626008 0.221243 -0.6078583 -0.7626057 0.4157942 -0.4955279 -0.7625973 0.5602107 -0.3234341 -0.7625982 0.6370458 -0.1123248 -0.762598 0.6370455 0.1123282 -0.7625952 0.5602099 0.3234404 -0.7626026 0.4157974 0.4955301 -0.7625977 0.2212381 0.6078639 -0.4057643 0.312568 -0.8588694 -0.4057517 -2.8085e-5 -0.9139835 -0.4057617 0.5874736 -0.7001659 -0.4057844 0.7915075 -0.4570065 -0.4057823 0.9000793 -0.158739 -0.4057819 0.9000896 0.1586812 -0.4057518 0.7915481 0.456965 -0.4057524 0.5875176 0.7001343 -0.4057508 0.3126277 0.8588541 -0.4057508 2.98843e-5 0.9139838 -0.4057959 -0.3125641 0.8588559 -0.405794 -0.5874628 0.7001563 -0.4057532 -0.7915165 0.4570189 -0.4057855 -0.9000778 0.1587388 -0.4057845 -0.9000884 -0.1586812 -0.4057644 -0.7915399 -0.4569682 -0.4057621 -0.5875171 -0.7001292 -0.405759 -0.3126254 -0.858851 -0.4057543 0.3126167 -0.8588563 -0.4057189 9.11951e-6 -0.9139979 -0.4057551 0.587484 -0.700161 -0.4057536 0.791528 -0.4569984 -0.4057545 0.9001 -0.1586926 -0.4057544 0.9000999 0.1586933 -0.4057538 0.7915236 0.457006 -0.405755 0.5874818 0.7001628 -0.4057541 0.3126161 0.8588567 -0.4057542 -1.90043e-5 0.9139822 -0.4057547 -0.3125829 0.8588686 -0.405754 -0.587482 0.7001634 -0.4057545 -0.7915251 0.4570028 -0.4057545 -0.9000947 0.1587232 -0.4057545 -0.9000998 -0.1586939 -0.4057543 -0.7915402 -0.4569767 -0.405754 -0.5875117 -0.7001384 -0.4057549 -0.3126099 -0.8588585 -0.4057189 -6.88434e-6 -0.913998 -0.7472804 2.69818e-6 -0.6645089 -1 -1.45048e-7 0 -0.7472764 0.2272626 -0.6244436 -0.7472681 0.4271519 -0.5090498 -0.7472821 0.5754787 -0.3322558 -0.7472729 0.6544192 -0.1154073 -0.7472725 0.6544196 0.1154077 -0.7472837 0.5754786 0.3322521 -0.7472691 0.4271479 0.5090516 -0.7472802 0.2272768 0.6244339 -0.7472668 -2.0478e-7 0.6645241 -0.7472782 -0.2272815 0.6244345 -0.7472769 -0.427142 0.5090454 -0.7472738 -0.5754903 0.3322542 -0.7472776 -0.6544178 0.1153852 -0.7472777 -0.6544172 -0.1153873 -0.7472707 -0.5754856 -0.3322692 -0.7472861 -0.4271391 -0.5090342 -0.7472692 -0.2272818 -0.6244453 -0.216893 0.3338658 -0.9173283 -0.2168986 -5.51811e-6 -0.9761942 -0.2168979 0.6274829 -0.7478105 -0.2168983 0.8454034 -0.488107 -0.2168997 0.9613594 -0.1695365 -0.2169001 0.9613609 0.1695281 -0.2168963 0.8454089 0.4880983 -0.2168958 0.6274904 0.7478049 -0.2168903 0.3338804 0.9173237 -0.2168947 2.70726e-5 0.9761951 -0.2169044 -0.3338668 0.9173251 -0.2168963 -0.6274928 0.7478027 -0.2168995 -0.8454049 0.4881038 -0.2168999 -0.9613628 0.1695169 -0.2168989 -0.9613655 -0.1695038 -0.2169018 -0.8454087 -0.4880962 -0.2169009 -0.6274863 -0.7478068 -0.2168965 -0.3338815 -0.9173217 -0.331129 -0.5893999 -0.7368591 -0.331128 -0.805864 0.4908538 -0.7079719 0.1198847 -0.6959909 -0.7231208 -0.1499403 -0.6742509 -0.7231286 -0.3715128 0.5822914 -0.7079841 -0.1253886 0.6950081 0.2442454 0.6579244 -0.7123761 0.2442279 0.3746085 0.8944391 0.5726494 0.06686091 0.8170693 0.5726861 0.3422612 -0.744908 0.7075288 0.1212646 -0.6962025 0.707551 -0.1241253 0.6956756 0.2442567 0.6579468 -0.7123516 0.5727038 0.3422639 -0.7448931 0.7075967 0.1213256 -0.6961229 -0.7293209 -0.3524152 -0.5864253 -0.7342801 0.07430344 0.674768 -0.6999752 0.2231884 0.6783965 -0.7140451 -0.2186933 -0.6650661 -0.6719747 -0.3379327 -0.6589778 -0.4119836 -0.09475392 0.9062513 -0.6276591 -0.1801562 0.7573559 -0.6058775 -0.6250265 -0.4921934 0.7002373 0.2222817 0.6784237 0.646123 0.3639808 0.6708526 0.6428052 -0.1237304 -0.7559712 0.7143334 -0.2194018 -0.664523 0.5277337 0.6138626 0.5870859 0.7119743 0.4417088 0.5458809 0.7230174 0.1597005 -0.6721173 0.5489251 0.08423197 -0.8316166 0.6428646 -0.123724 -0.7559217 0.7143735 -0.2194713 -0.6644568 0.7230247 0.1597503 -0.6720976 0.5489426 0.08426439 -0.8316018 -0.7826573 0 -0.6224529 -0.6263651 0 0.7795299 0.7815812 0 0.6238036 0.6199228 4.76706e-5 -0.7846629 0.6199838 2.04719e-5 -0.7846148 0 -0.8674694 -0.4974907 -0.7490769 -0.5746862 -0.3295751 -0.583531 -0.3727763 -0.7214773 0 -0.467932 -0.8837646 -0.7483599 -0.4263586 -0.5081101 1.92462e-6 -0.3420225 -0.9396918 -0.748359 -0.2268592 -0.6232926 -1.03407e-5 -7.73759e-6 -1 -0.7483633 1.97552e-6 -0.6632892 -3.89984e-6 0.3447457 -0.9386962 -0.7490794 0.2283841 -0.6218688 -1.48923e-7 -0.2758249 -0.961208 -0.5744427 -0.2234675 -0.7874503 -0.7226697 -0.6862797 -0.08227306 0.002146244 -0.8763874 -0.4816022 -0.3280939 -0.8947989 0.3028025 -0.3258252 0.8809452 -0.3431817 -0.4022443 0.7974259 0.4497906 -0.4035049 0.5958205 0.6943931 -0.4048344 0.3189437 0.8569622 -0.4053588 -4.20649e-6 0.9141577 -0.4048338 -0.3189508 0.8569598 -0.007164776 0.3164831 -0.9485711 -0.7223157 0.4574772 -0.5186277 -0.9253258 0.330964 0.1850273 -0.9260752 0.24658 0.2856274 -0.9266432 0.1318351 0.3520681 -0.9268696 -8.05671e-7 0.3753837 -0.9266455 -0.1319133 0.3520329</float_array>
          <technique_common>
            <accessor source="#maters_road_compactor-mesh-normals-array" count="430" stride="3">
              <param name="X" type="float"/>
              <param name="Y" type="float"/>
              <param name="Z" type="float"/>
            </accessor>
          </technique_common>
        </source>
        <source id="maters_road_compactor-mesh-map-0">
          <float_array id="maters_road_compactor-mesh-map-0-array" count="3960">0.686748 0.610712 0.690787 0.665418 0.670481 0.663209 0.670481 0.663209 0.666914 0.615588 0.686748 0.610712 0.690787 0.665418 0.675861 0.718193 0.65754 0.709172 0.65754 0.709172 0.670481 0.663209 0.690787 0.665418 0.675861 0.718193 0.643791 0.762667 0.629662 0.747926 0.629662 0.747926 0.65754 0.709172 0.675861 0.718193 0.643791 0.762667 0.59845 0.793488 0.590215 0.774806 0.590215 0.774806 0.629662 0.747926 0.643791 0.762667 0.59845 0.793488 0.545308 0.806948 0.543956 0.786577 0.543956 0.786577 0.590215 0.774806 0.59845 0.793488 0.545308 0.806948 0.490763 0.801427 0.49646 0.781822 0.49646 0.781822 0.543956 0.786577 0.545308 0.806948 0.490763 0.801427 0.441397 0.77758 0.453455 0.761107 0.453455 0.761107 0.49646 0.781822 0.490763 0.801427 0.441397 0.77758 0.403166 0.73829 0.42013 0.726934 0.42013 0.726934 0.453455 0.761107 0.441397 0.77758 0.403166 0.73829 0.380673 0.6883 0.400498 0.683427 0.400498 0.683427 0.42013 0.726934 0.403166 0.73829 0.380673 0.6883 0.37663 0.633622 0.396928 0.635825 0.396928 0.635825 0.400498 0.683427 0.380673 0.6883 0.37663 0.633622 0.391537 0.580859 0.409857 0.589872 0.409857 0.589872 0.396928 0.635825 0.37663 0.633622 0.391537 0.580859 0.42359 0.5363801 0.437722 0.551115 0.437722 0.551115 0.409857 0.589872 0.391537 0.580859 0.42359 0.5363801 0.468921 0.505542 0.477162 0.524223 0.477162 0.524223 0.437722 0.551115 0.42359 0.5363801 0.468921 0.505542 0.522068 0.49207 0.523423 0.512443 0.523423 0.512443 0.477162 0.524223 0.468921 0.505542 0.522068 0.49207 0.576615 0.497591 0.570921 0.517195 0.570921 0.517195 0.523423 0.512443 0.522068 0.49207 0.576615 0.497591 0.625985 0.521422 0.61393 0.5379011 0.61393 0.5379011 0.570921 0.517195 0.576615 0.497591 0.625985 0.521422 0.664236 0.560703 0.647269 0.572067 0.647269 0.572067 0.61393 0.5379011 0.625985 0.521422 0.664236 0.560703 0.686748 0.610712 0.666914 0.615588 0.666914 0.615588 0.647269 0.572067 0.664236 0.560703 0.649467 0.620164 0.652522 0.661536 0.533696 0.649513 0.652522 0.661536 0.641239 0.701457 0.533696 0.649513 0.641239 0.701457 0.616984 0.735103 0.533696 0.649513 0.616984 0.735103 0.582687 0.758424 0.533696 0.649513 0.582687 0.758424 0.542484 0.768607 0.533696 0.649513 0.542484 0.768607 0.501222 0.764431 0.533696 0.649513 0.501222 0.764431 0.463877 0.746395 0.533696 0.649513 0.463877 0.746395 0.434953 0.716673 0.533696 0.649513 0.434953 0.716673 0.417938 0.678852 0.533696 0.649513 0.417938 0.678852 0.414882 0.637491 0.533696 0.649513 0.414882 0.637491 0.426157 0.59758 0.533696 0.649513 0.426157 0.59758 0.450403 0.563931 0.533696 0.649513 0.450403 0.563931 0.484694 0.540604 0.533696 0.649513 0.484694 0.540604 0.524898 0.530413 0.533696 0.649513 0.524898 0.530413 0.566162 0.5345841 0.533696 0.649513 0.566162 0.5345841 0.603511 0.552617 0.533696 0.649513 0.603511 0.552617 0.632444 0.582337 0.533696 0.649513 0.632444 0.582337 0.649467 0.620164 0.533696 0.649513 0.666914 0.615588 0.670481 0.663209 0.652522 0.661536 0.652522 0.661536 0.649467 0.620164 0.666914 0.615588 0.670481 0.663209 0.65754 0.709172 0.641239 0.701457 0.641239 0.701457 0.652522 0.661536 0.670481 0.663209 0.65754 0.709172 0.629662 0.747926 0.616984 0.735103 0.616984 0.735103 0.641239 0.701457 0.65754 0.709172 0.629662 0.747926 0.590215 0.774806 0.582687 0.758424 0.582687 0.758424 0.616984 0.735103 0.629662 0.747926 0.590215 0.774806 0.543956 0.786577 0.542484 0.768607 0.542484 0.768607 0.582687 0.758424 0.590215 0.774806 0.543956 0.786577 0.49646 0.781822 0.501222 0.764431 0.501222 0.764431 0.542484 0.768607 0.543956 0.786577 0.49646 0.781822 0.453455 0.761107 0.463877 0.746395 0.463877 0.746395 0.501222 0.764431 0.49646 0.781822 0.453455 0.761107 0.42013 0.726934 0.434953 0.716673 0.434953 0.716673 0.463877 0.746395 0.453455 0.761107 0.42013 0.726934 0.400498 0.683427 0.417938 0.678852 0.417938 0.678852 0.434953 0.716673 0.42013 0.726934 0.400498 0.683427 0.396928 0.635825 0.414882 0.637491 0.414882 0.637491 0.417938 0.678852 0.400498 0.683427 0.396928 0.635825 0.409857 0.589872 0.426157 0.59758 0.426157 0.59758 0.414882 0.637491 0.396928 0.635825 0.409857 0.589872 0.437722 0.551115 0.450403 0.563931 0.450403 0.563931 0.426157 0.59758 0.409857 0.589872 0.437722 0.551115 0.477162 0.524223 0.484694 0.540604 0.484694 0.540604 0.450403 0.563931 0.437722 0.551115 0.477162 0.524223 0.523423 0.512443 0.524898 0.530413 0.524898 0.530413 0.484694 0.540604 0.477162 0.524223 0.523423 0.512443 0.570921 0.517195 0.566162 0.5345841 0.566162 0.5345841 0.524898 0.530413 0.523423 0.512443 0.570921 0.517195 0.61393 0.5379011 0.603511 0.552617 0.603511 0.552617 0.566162 0.5345841 0.570921 0.517195 0.61393 0.5379011 0.647269 0.572067 0.632444 0.582337 0.632444 0.582337 0.603511 0.552617 0.61393 0.5379011 0.647269 0.572067 0.666914 0.615588 0.649467 0.620164 0.649467 0.620164 0.632444 0.582337 0.647269 0.572067 0.699847 0.666372 0.690787 0.665418 0.686748 0.610712 0.686748 0.610712 0.695587 0.608504 0.699847 0.666372 0.684045 0.722189 0.675861 0.718193 0.690787 0.665418 0.690787 0.665418 0.699847 0.666372 0.684045 0.722189 0.650113 0.76922 0.643791 0.762667 0.675861 0.718193 0.675861 0.718193 0.684045 0.722189 0.650113 0.76922 0.602151 0.801807 0.59845 0.793488 0.643791 0.762667 0.643791 0.762667 0.650113 0.76922 0.602151 0.801807 0.54594 0.816031 0.545308 0.806948 0.59845 0.793488 0.59845 0.793488 0.602151 0.801807 0.54594 0.816031 0.488252 0.810178 0.490763 0.801427 0.545308 0.806948 0.545308 0.806948 0.54594 0.816031 0.488252 0.810178 0.436043 0.784946 0.441397 0.77758 0.490763 0.801427 0.490763 0.801427 0.488252 0.810178 0.436043 0.784946 0.395617 0.74338 0.403166 0.73829 0.441397 0.77758 0.441397 0.77758 0.436043 0.784946 0.395617 0.74338 0.371839 0.690507 0.380673 0.6883 0.403166 0.73829 0.403166 0.73829 0.395617 0.74338 0.371839 0.690507 0.367573 0.6326701 0.37663 0.633622 0.380673 0.6883 0.380673 0.6883 0.371839 0.690507 0.367573 0.6326701 0.383353 0.576867 0.391537 0.580859 0.37663 0.633622 0.37663 0.633622 0.367573 0.6326701 0.383353 0.576867 0.417265 0.529829 0.42359 0.5363801 0.391537 0.580859 0.391537 0.580859 0.383353 0.576867 0.417265 0.529829 0.465219 0.497222 0.468921 0.505542 0.42359 0.5363801 0.42359 0.5363801 0.417265 0.529829 0.465219 0.497222 0.521434 0.482985 0.522068 0.49207 0.468921 0.505542 0.468921 0.505542 0.465219 0.497222 0.521434 0.482985 0.579125 0.488839 0.576615 0.497591 0.522068 0.49207 0.522068 0.49207 0.521434 0.482985 0.579125 0.488839 0.631336 0.514054 0.625985 0.521422 0.576615 0.497591 0.576615 0.497591 0.579125 0.488839 0.631336 0.514054 0.671785 0.55561 0.664236 0.560703 0.625985 0.521422 0.625985 0.521422 0.631336 0.514054 0.671785 0.55561 0.695587 0.608504 0.686748 0.610712 0.664236 0.560703 0.664236 0.560703 0.671785 0.55561 0.695587 0.608504 0.007672965 0.06329399 0.007672965 0.008915007 0.349723 0.008916974 0.349723 0.008916974 0.349723 0.06329602 0.007672965 0.06329399 0.007672965 0.1176739 0.007672965 0.06329399 0.349723 0.06329602 0.349723 0.06329602 0.349723 0.117675 0.007672965 0.1176739 0.007672965 0.1720529 0.007672965 0.1176739 0.349723 0.117675 0.349723 0.117675 0.349722 0.1720539 0.007672965 0.1720529 0.007672965 0.2264329 0.007672965 0.1720529 0.349722 0.1720539 0.349722 0.1720539 0.349722 0.2264329 0.007672965 0.2264329 0.007671952 0.280812 0.007672965 0.2264329 0.349722 0.2264329 0.349722 0.2264329 0.349722 0.280812 0.007671952 0.280812 0.007671952 0.335191 0.007671952 0.280812 0.349722 0.280812 0.349722 0.280812 0.349722 0.335192 0.007671952 0.335191 0.007671952 0.389571 0.007671952 0.335191 0.349722 0.335192 0.349722 0.335192 0.349723 0.389571 0.007671952 0.389571 0.007671952 0.443951 0.007671952 0.389571 0.349723 0.389571 0.349723 0.389571 0.349723 0.44395 0.007671952 0.443951 0.007670998 0.498331 0.007671952 0.443951 0.349723 0.44395 0.349723 0.44395 0.349723 0.498329 0.007670998 0.498331 0.007670998 0.55271 0.007670998 0.498331 0.349723 0.498329 0.349723 0.498329 0.349724 0.55271 0.007670998 0.55271 0.007670998 0.607091 0.007670998 0.55271 0.349724 0.55271 0.349724 0.55271 0.349724 0.60709 0.007670998 0.607091 0.007670998 0.66147 0.007670998 0.607091 0.349724 0.60709 0.349724 0.60709 0.349724 0.66147 0.007670998 0.66147 0.007670998 0.715851 0.007670998 0.66147 0.349724 0.66147 0.349724 0.66147 0.349725 0.71585 0.007670998 0.715851 0.007670998 0.770231 0.007670998 0.715851 0.349725 0.71585 0.349725 0.71585 0.349725 0.770231 0.007670998 0.770231 0.007670998 0.824611 0.007670998 0.770231 0.349725 0.770231 0.349725 0.770231 0.349725 0.824611 0.007670998 0.824611 0.007669985 0.878991 0.007670998 0.824611 0.349725 0.824611 0.349725 0.824611 0.349725 0.878991 0.007669985 0.878991 0.007669985 0.933372 0.007669985 0.878991 0.349725 0.878991 0.349725 0.878991 0.349725 0.933372 0.007669985 0.933372 0.007669985 0.987752 0.007669985 0.933372 0.349725 0.933372 0.349725 0.933372 0.349725 0.987752 0.007669985 0.987752 0.451884 0.860809 0.4658 0.863267 0.451874 0.901495 0.4658 0.863267 0.478036 0.870334 0.451874 0.901495 0.478036 0.870334 0.487117 0.88116 0.451874 0.901495 0.487117 0.88116 0.491946 0.894439 0.451874 0.901495 0.491946 0.894439 0.49194 0.90857 0.451874 0.901495 0.49194 0.90857 0.487104 0.921848 0.451874 0.901495 0.487104 0.921848 0.478019 0.932671 0.451874 0.901495 0.478019 0.932671 0.46578 0.939732 0.451874 0.901495 0.46578 0.939732 0.451864 0.94218 0.451874 0.901495 0.451864 0.94218 0.437948 0.939723 0.451874 0.901495 0.437948 0.939723 0.425712 0.932655 0.451874 0.901495 0.425712 0.932655 0.416631 0.921829 0.451874 0.901495 0.416631 0.921829 0.411802 0.908551 0.451874 0.901495 0.411802 0.908551 0.411808 0.894419 0.451874 0.901495 0.411808 0.894419 0.416644 0.881142 0.451874 0.901495 0.416644 0.881142 0.425729 0.870319 0.451874 0.901495 0.425729 0.870319 0.437967 0.863257 0.451874 0.901495 0.437967 0.863257 0.451884 0.860809 0.451874 0.901495 0.4658 0.863267 0.451884 0.860809 0.451942 0.805925 0.451942 0.805925 0.484626 0.811712 0.4658 0.863267 0.478036 0.870334 0.4658 0.863267 0.484626 0.811712 0.484626 0.811712 0.51336 0.828327 0.478036 0.870334 0.487117 0.88116 0.478036 0.870334 0.51336 0.828327 0.51336 0.828327 0.534678 0.853768 0.487117 0.88116 0.491946 0.894439 0.487117 0.88116 0.534678 0.853768 0.534678 0.853768 0.546008 0.884966 0.491946 0.894439 0.49194 0.90857 0.491946 0.894439 0.546008 0.884966 0.546008 0.884966 0.545981 0.918158 0.49194 0.90857 0.487104 0.921848 0.49194 0.90857 0.545981 0.918158 0.545981 0.918158 0.534606 0.94934 0.487104 0.921848 0.478019 0.932671 0.487104 0.921848 0.534606 0.94934 0.534606 0.94934 0.513254 0.974752 0.478019 0.932671 0.46578 0.939732 0.478019 0.932671 0.513254 0.974752 0.513254 0.974752 0.484497 0.991327 0.46578 0.939732 0.451864 0.94218 0.46578 0.939732 0.484497 0.991327 0.484497 0.991327 0.451805 0.997065 0.451864 0.94218 0.437948 0.939723 0.451864 0.94218 0.451805 0.997065 0.451805 0.997065 0.419122 0.991277 0.437948 0.939723 0.425712 0.932655 0.437948 0.939723 0.419122 0.991277 0.419122 0.991277 0.390389 0.974662 0.425712 0.932655 0.416631 0.921829 0.425712 0.932655 0.390389 0.974662 0.390389 0.974662 0.369071 0.949221 0.416631 0.921829 0.411802 0.908551 0.416631 0.921829 0.369071 0.949221 0.369071 0.949221 0.357741 0.918023 0.411802 0.908551 0.411808 0.894419 0.411802 0.908551 0.357741 0.918023 0.357741 0.918023 0.357767 0.884831 0.411808 0.894419 0.416644 0.881142 0.411808 0.894419 0.357767 0.884831 0.357767 0.884831 0.369142 0.853649 0.416644 0.881142 0.425729 0.870319 0.416644 0.881142 0.369142 0.853649 0.369142 0.853649 0.390494 0.828238 0.425729 0.870319 0.437967 0.863257 0.425729 0.870319 0.390494 0.828238 0.390494 0.828238 0.41925 0.811662 0.437967 0.863257 0.451884 0.860809 0.437967 0.863257 0.41925 0.811662 0.41925 0.811662 0.451942 0.805925 0.451884 0.860809 0.948705 0.4767 0.901201 0.4767 0.901201 0.02286499 0.901201 0.02286499 0.948705 0.02286499 0.948705 0.4767 0.948705 0.659232 0.901201 0.659232 0.901201 0.493678 0.901201 0.493678 0.948705 0.493678 0.948705 0.659232 0.901201 0.493678 0.901201 0.4767 0.948705 0.4767 0.948705 0.4767 0.948705 0.493678 0.901201 0.493678 0.888159 0.02286499 0.888159 0.4767 0.840046 0.4767 0.840046 0.4767 0.840046 0.02286499 0.888159 0.02286499 0.888159 0.493678 0.888159 0.659232 0.840046 0.659232 0.840046 0.659232 0.840046 0.493678 0.888159 0.493678 0.840046 0.4767 0.888159 0.4767 0.888159 0.493678 0.888159 0.493678 0.840046 0.493678 0.840046 0.4767 0.962782 0.02286499 0.962782 0.4767 0.948705 0.4767 0.948705 0.4767 0.948705 0.02286499 0.962782 0.02286499 0.888159 0.4767 0.888159 0.02286499 0.901201 0.02286499 0.901201 0.02286499 0.901201 0.4767 0.888159 0.4767 0.962782 0.493678 0.962782 0.659232 0.948705 0.659232 0.948705 0.659232 0.948705 0.493678 0.962782 0.493678 0.888159 0.659232 0.888159 0.493678 0.901201 0.493678 0.901201 0.493678 0.901201 0.659232 0.888159 0.659232 0.962782 0.4767 0.962782 0.493678 0.948705 0.493678 0.948705 0.493678 0.948705 0.4767 0.962782 0.4767 0.888159 0.493678 0.888159 0.4767 0.901201 0.4767 0.901201 0.4767 0.901201 0.493678 0.888159 0.493678 0.789118 0.839547 0.789118 0.975521 0.768111 0.975521 0.768111 0.975521 0.768111 0.839547 0.789118 0.839547 0.789118 0.487528 0.789118 0.796794 0.768111 0.796794 0.768111 0.796794 0.768111 0.487528 0.789118 0.487528 0.789118 0.796794 0.789118 0.839547 0.768111 0.839547 0.768111 0.839547 0.768111 0.796794 0.789118 0.796794 0.757363 0.975521 0.736548 0.975521 0.736548 0.839547 0.736548 0.839547 0.757363 0.839547 0.757363 0.975521 0.757363 0.796794 0.736548 0.796794 0.736548 0.487528 0.736548 0.487528 0.757363 0.487528 0.757363 0.796794 0.757363 0.839547 0.736548 0.839547 0.736548 0.796794 0.736548 0.796794 0.757363 0.796794 0.757363 0.839547 0.757363 0.975521 0.757363 0.839547 0.768111 0.839547 0.768111 0.839547 0.768111 0.975521 0.757363 0.975521 0.800193 0.839547 0.800193 0.975521 0.789118 0.975521 0.789118 0.975521 0.789118 0.839547 0.800193 0.839547 0.757363 0.796794 0.757363 0.487528 0.768111 0.487528 0.768111 0.487528 0.768111 0.796794 0.757363 0.796794 0.800193 0.487528 0.800193 0.796794 0.789118 0.796794 0.789118 0.796794 0.789118 0.487528 0.800193 0.487528 0.757363 0.839547 0.757363 0.796794 0.768111 0.796794 0.768111 0.796794 0.768111 0.839547 0.757363 0.839547 0.800193 0.796794 0.800193 0.839547 0.789118 0.839547 0.789118 0.839547 0.789118 0.796794 0.800193 0.796794 0.789118 0.487528 0.768111 0.487528 0.768111 0.45695 0.768111 0.45695 0.789118 0.45695 0.789118 0.487528 0.757363 0.487528 0.736548 0.487528 0.736548 0.45695 0.736548 0.45695 0.757363 0.45695 0.757363 0.487528 0.768111 0.487528 0.757363 0.487528 0.757363 0.45695 0.757363 0.45695 0.768111 0.45695 0.768111 0.487528 0.800193 0.487528 0.789118 0.487528 0.789118 0.45695 0.789118 0.45695 0.800193 0.45695 0.800193 0.487528 0.8033 0.369425 0.768552 0.426633 0.759309 0.405684 0.759309 0.405684 0.774013 0.360832 0.8033 0.369425 0.809794 0.305557 0.8033 0.369425 0.774013 0.360832 0.774013 0.360832 0.778761 0.304165 0.809794 0.305557 0.811482 0.2424849 0.809794 0.305557 0.778761 0.304165 0.778761 0.304165 0.781452 0.2439479 0.811482 0.2424849 0.804454 0.179921 0.811482 0.2424849 0.781452 0.2439479 0.781452 0.2439479 0.775671 0.184902 0.804454 0.179921 0.790454 0.1222389 0.804454 0.179921 0.775671 0.184902 0.775671 0.184902 0.765978 0.1310229 0.790454 0.1222389 0.759585 0.06804698 0.790454 0.1222389 0.765978 0.1310229 0.765978 0.1310229 0.7486 0.08884102 0.759585 0.06804698 0.733921 0.09269499 0.723545 0.09239298 0.730379 0.06644397 0.37587 0.393614 0.729996 0.35823 0.733138 0.403216 0.733138 0.403216 0.383622 0.46554 0.37587 0.393614 0.730124 0.302868 0.729996 0.35823 0.37587 0.393614 0.37587 0.393614 0.371022 0.32237 0.730124 0.302868 0.728271 0.245576 0.730124 0.302868 0.371022 0.32237 0.371022 0.32237 0.368757 0.251794 0.728271 0.245576 0.725483 0.1887509 0.728271 0.245576 0.368757 0.251794 0.368757 0.251794 0.369041 0.1818119 0.725483 0.1887509 0.722931 0.1361529 0.725483 0.1887509 0.369041 0.1818119 0.369041 0.1818119 0.372 0.1121829 0.722931 0.1361529 0.723545 0.09239298 0.722931 0.1361529 0.372 0.1121829 0.372 0.1121829 0.379058 0.03650897 0.723545 0.09239298 0.733138 0.403216 0.740487 0.428582 0.387512 0.488472 0.387512 0.488472 0.383622 0.46554 0.733138 0.403216 0.379058 0.03650897 0.38255 0.013547 0.730379 0.06644397 0.730379 0.06644397 0.723545 0.09239298 0.379058 0.03650897 0.733138 0.403216 0.743368 0.402508 0.740487 0.428582 0.743368 0.402508 0.743236 0.358555 0.774013 0.360832 0.774013 0.360832 0.759309 0.405684 0.743368 0.402508 0.743236 0.358555 0.745045 0.303064 0.778761 0.304165 0.778761 0.304165 0.774013 0.360832 0.743236 0.358555 0.745045 0.303064 0.743498 0.2451639 0.781452 0.2439479 0.781452 0.2439479 0.778761 0.304165 0.745045 0.303064 0.743498 0.2451639 0.740465 0.187848 0.775671 0.184902 0.775671 0.184902 0.781452 0.2439479 0.743498 0.2451639 0.740465 0.187848 0.735996 0.1352769 0.765978 0.1310229 0.765978 0.1310229 0.775671 0.184902 0.740465 0.187848 0.735996 0.1352769 0.733921 0.09269499 0.7486 0.08884102 0.7486 0.08884102 0.765978 0.1310229 0.735996 0.1352769 0.7486 0.08884102 0.730379 0.06644397 0.759585 0.06804698 0.740487 0.428582 0.759309 0.405684 0.768552 0.426633 0.729996 0.35823 0.743236 0.358555 0.743368 0.402508 0.743368 0.402508 0.733138 0.403216 0.729996 0.35823 0.730124 0.302868 0.745045 0.303064 0.743236 0.358555 0.743236 0.358555 0.729996 0.35823 0.730124 0.302868 0.728271 0.245576 0.743498 0.2451639 0.745045 0.303064 0.745045 0.303064 0.730124 0.302868 0.728271 0.245576 0.725483 0.1887509 0.740465 0.187848 0.743498 0.2451639 0.743498 0.2451639 0.728271 0.245576 0.725483 0.1887509 0.722931 0.1361529 0.735996 0.1352769 0.740465 0.187848 0.740465 0.187848 0.725483 0.1887509 0.722931 0.1361529 0.723545 0.09239298 0.733921 0.09269499 0.735996 0.1352769 0.735996 0.1352769 0.722931 0.1361529 0.723545 0.09239298 0.743368 0.402508 0.759309 0.405684 0.740487 0.428582 0.730379 0.06644397 0.7486 0.08884102 0.733921 0.09269499 0.686748 0.610712 0.666914 0.615588 0.670481 0.663209 0.670481 0.663209 0.690787 0.665418 0.686748 0.610712 0.690787 0.665418 0.670481 0.663209 0.65754 0.709172 0.65754 0.709172 0.675861 0.718193 0.690787 0.665418 0.675861 0.718193 0.65754 0.709172 0.629662 0.747926 0.629662 0.747926 0.643791 0.762667 0.675861 0.718193 0.643791 0.762667 0.629662 0.747926 0.590215 0.774806 0.590215 0.774806 0.59845 0.793488 0.643791 0.762667 0.59845 0.793488 0.590215 0.774806 0.543956 0.786577 0.543956 0.786577 0.545308 0.806948 0.59845 0.793488 0.545308 0.806948 0.543956 0.786577 0.49646 0.781822 0.49646 0.781822 0.490763 0.801427 0.545308 0.806948 0.490763 0.801427 0.49646 0.781822 0.453455 0.761107 0.453455 0.761107 0.441397 0.77758 0.490763 0.801427 0.441397 0.77758 0.453455 0.761107 0.42013 0.726934 0.42013 0.726934 0.403166 0.73829 0.441397 0.77758 0.403166 0.73829 0.42013 0.726934 0.400498 0.683427 0.400498 0.683427 0.380673 0.6883 0.403166 0.73829 0.380673 0.6883 0.400498 0.683427 0.396928 0.635825 0.396928 0.635825 0.37663 0.633622 0.380673 0.6883 0.37663 0.633622 0.396928 0.635825 0.409857 0.589872 0.409857 0.589872 0.391537 0.580859 0.37663 0.633622 0.391537 0.580859 0.409857 0.589872 0.437722 0.551115 0.437722 0.551115 0.42359 0.5363801 0.391537 0.580859 0.42359 0.5363801 0.437722 0.551115 0.477162 0.524223 0.477162 0.524223 0.468921 0.505542 0.42359 0.5363801 0.468921 0.505542 0.477162 0.524223 0.523423 0.512443 0.523423 0.512443 0.522068 0.49207 0.468921 0.505542 0.522068 0.49207 0.523423 0.512443 0.570921 0.517195 0.570921 0.517195 0.576615 0.497591 0.522068 0.49207 0.576615 0.497591 0.570921 0.517195 0.61393 0.5379011 0.61393 0.5379011 0.625985 0.521422 0.576615 0.497591 0.625985 0.521422 0.61393 0.5379011 0.647269 0.572067 0.647269 0.572067 0.664236 0.560703 0.625985 0.521422 0.664236 0.560703 0.647269 0.572067 0.666914 0.615588 0.666914 0.615588 0.686748 0.610712 0.664236 0.560703 0.649467 0.620164 0.533696 0.649513 0.652522 0.661536 0.652522 0.661536 0.533696 0.649513 0.641239 0.701457 0.641239 0.701457 0.533696 0.649513 0.616984 0.735103 0.616984 0.735103 0.533696 0.649513 0.582687 0.758424 0.582687 0.758424 0.533696 0.649513 0.542484 0.768607 0.542484 0.768607 0.533696 0.649513 0.501222 0.764431 0.501222 0.764431 0.533696 0.649513 0.463877 0.746395 0.463877 0.746395 0.533696 0.649513 0.434953 0.716673 0.434953 0.716673 0.533696 0.649513 0.417938 0.678852 0.417938 0.678852 0.533696 0.649513 0.414882 0.637491 0.414882 0.637491 0.533696 0.649513 0.426157 0.59758 0.426157 0.59758 0.533696 0.649513 0.450403 0.563931 0.450403 0.563931 0.533696 0.649513 0.484694 0.540604 0.484694 0.540604 0.533696 0.649513 0.524898 0.530413 0.524898 0.530413 0.533696 0.649513 0.566162 0.5345841 0.566162 0.5345841 0.533696 0.649513 0.603511 0.552617 0.603511 0.552617 0.533696 0.649513 0.632444 0.582337 0.632444 0.582337 0.533696 0.649513 0.649467 0.620164 0.666914 0.615588 0.649467 0.620164 0.652522 0.661536 0.652522 0.661536 0.670481 0.663209 0.666914 0.615588 0.670481 0.663209 0.652522 0.661536 0.641239 0.701457 0.641239 0.701457 0.65754 0.709172 0.670481 0.663209 0.65754 0.709172 0.641239 0.701457 0.616984 0.735103 0.616984 0.735103 0.629662 0.747926 0.65754 0.709172 0.629662 0.747926 0.616984 0.735103 0.582687 0.758424 0.582687 0.758424 0.590215 0.774806 0.629662 0.747926 0.590215 0.774806 0.582687 0.758424 0.542484 0.768607 0.542484 0.768607 0.543956 0.786577 0.590215 0.774806 0.543956 0.786577 0.542484 0.768607 0.501222 0.764431 0.501222 0.764431 0.49646 0.781822 0.543956 0.786577 0.49646 0.781822 0.501222 0.764431 0.463877 0.746395 0.463877 0.746395 0.453455 0.761107 0.49646 0.781822 0.453455 0.761107 0.463877 0.746395 0.434953 0.716673 0.434953 0.716673 0.42013 0.726934 0.453455 0.761107 0.42013 0.726934 0.434953 0.716673 0.417938 0.678852 0.417938 0.678852 0.400498 0.683427 0.42013 0.726934 0.400498 0.683427 0.417938 0.678852 0.414882 0.637491 0.414882 0.637491 0.396928 0.635825 0.400498 0.683427 0.396928 0.635825 0.414882 0.637491 0.426157 0.59758 0.426157 0.59758 0.409857 0.589872 0.396928 0.635825 0.409857 0.589872 0.426157 0.59758 0.450403 0.563931 0.450403 0.563931 0.437722 0.551115 0.409857 0.589872 0.437722 0.551115 0.450403 0.563931 0.484694 0.540604 0.484694 0.540604 0.477162 0.524223 0.437722 0.551115 0.477162 0.524223 0.484694 0.540604 0.524898 0.530413 0.524898 0.530413 0.523423 0.512443 0.477162 0.524223 0.523423 0.512443 0.524898 0.530413 0.566162 0.5345841 0.566162 0.5345841 0.570921 0.517195 0.523423 0.512443 0.570921 0.517195 0.566162 0.5345841 0.603511 0.552617 0.603511 0.552617 0.61393 0.5379011 0.570921 0.517195 0.61393 0.5379011 0.603511 0.552617 0.632444 0.582337 0.632444 0.582337 0.647269 0.572067 0.61393 0.5379011 0.647269 0.572067 0.632444 0.582337 0.649467 0.620164 0.649467 0.620164 0.666914 0.615588 0.647269 0.572067 0.699847 0.666372 0.695587 0.608504 0.686748 0.610712 0.686748 0.610712 0.690787 0.665418 0.699847 0.666372 0.684045 0.722189 0.699847 0.666372 0.690787 0.665418 0.690787 0.665418 0.675861 0.718193 0.684045 0.722189 0.650113 0.76922 0.684045 0.722189 0.675861 0.718193 0.675861 0.718193 0.643791 0.762667 0.650113 0.76922 0.602151 0.801807 0.650113 0.76922 0.643791 0.762667 0.643791 0.762667 0.59845 0.793488 0.602151 0.801807 0.54594 0.816031 0.602151 0.801807 0.59845 0.793488 0.59845 0.793488 0.545308 0.806948 0.54594 0.816031 0.488252 0.810178 0.54594 0.816031 0.545308 0.806948 0.545308 0.806948 0.490763 0.801427 0.488252 0.810178 0.436043 0.784946 0.488252 0.810178 0.490763 0.801427 0.490763 0.801427 0.441397 0.77758 0.436043 0.784946 0.395617 0.74338 0.436043 0.784946 0.441397 0.77758 0.441397 0.77758 0.403166 0.73829 0.395617 0.74338 0.371839 0.690507 0.395617 0.74338 0.403166 0.73829 0.403166 0.73829 0.380673 0.6883 0.371839 0.690507 0.367573 0.6326701 0.371839 0.690507 0.380673 0.6883 0.380673 0.6883 0.37663 0.633622 0.367573 0.6326701 0.383353 0.576867 0.367573 0.6326701 0.37663 0.633622 0.37663 0.633622 0.391537 0.580859 0.383353 0.576867 0.417265 0.529829 0.383353 0.576867 0.391537 0.580859 0.391537 0.580859 0.42359 0.5363801 0.417265 0.529829 0.465219 0.497222 0.417265 0.529829 0.42359 0.5363801 0.42359 0.5363801 0.468921 0.505542 0.465219 0.497222 0.521434 0.482985 0.465219 0.497222 0.468921 0.505542 0.468921 0.505542 0.522068 0.49207 0.521434 0.482985 0.579125 0.488839 0.521434 0.482985 0.522068 0.49207 0.522068 0.49207 0.576615 0.497591 0.579125 0.488839 0.631336 0.514054 0.579125 0.488839 0.576615 0.497591 0.576615 0.497591 0.625985 0.521422 0.631336 0.514054 0.671785 0.55561 0.631336 0.514054 0.625985 0.521422 0.625985 0.521422 0.664236 0.560703 0.671785 0.55561 0.695587 0.608504 0.671785 0.55561 0.664236 0.560703 0.664236 0.560703 0.686748 0.610712 0.695587 0.608504 0.007672965 0.06329399 0.349723 0.06329602 0.349723 0.008916974 0.349723 0.008916974 0.007672965 0.008915007 0.007672965 0.06329399 0.007672965 0.1176739 0.349723 0.117675 0.349723 0.06329602 0.349723 0.06329602 0.007672965 0.06329399 0.007672965 0.1176739 0.007672965 0.1720529 0.349722 0.1720539 0.349723 0.117675 0.349723 0.117675 0.007672965 0.1176739 0.007672965 0.1720529 0.007672965 0.2264329 0.349722 0.2264329 0.349722 0.1720539 0.349722 0.1720539 0.007672965 0.1720529 0.007672965 0.2264329 0.007671952 0.280812 0.349722 0.280812 0.349722 0.2264329 0.349722 0.2264329 0.007672965 0.2264329 0.007671952 0.280812 0.007671952 0.335191 0.349722 0.335192 0.349722 0.280812 0.349722 0.280812 0.007671952 0.280812 0.007671952 0.335191 0.007671952 0.389571 0.349723 0.389571 0.349722 0.335192 0.349722 0.335192 0.007671952 0.335191 0.007671952 0.389571 0.007671952 0.443951 0.349723 0.44395 0.349723 0.389571 0.349723 0.389571 0.007671952 0.389571 0.007671952 0.443951 0.007670998 0.498331 0.349723 0.498329 0.349723 0.44395 0.349723 0.44395 0.007671952 0.443951 0.007670998 0.498331 0.007670998 0.55271 0.349724 0.55271 0.349723 0.498329 0.349723 0.498329 0.007670998 0.498331 0.007670998 0.55271 0.007670998 0.607091 0.349724 0.60709 0.349724 0.55271 0.349724 0.55271 0.007670998 0.55271 0.007670998 0.607091 0.007670998 0.66147 0.349724 0.66147 0.349724 0.60709 0.349724 0.60709 0.007670998 0.607091 0.007670998 0.66147 0.007670998 0.715851 0.349725 0.71585 0.349724 0.66147 0.349724 0.66147 0.007670998 0.66147 0.007670998 0.715851 0.007670998 0.770231 0.349725 0.770231 0.349725 0.71585 0.349725 0.71585 0.007670998 0.715851 0.007670998 0.770231 0.007670998 0.824611 0.349725 0.824611 0.349725 0.770231 0.349725 0.770231 0.007670998 0.770231 0.007670998 0.824611 0.007669985 0.878991 0.349725 0.878991 0.349725 0.824611 0.349725 0.824611 0.007670998 0.824611 0.007669985 0.878991 0.007669985 0.933372 0.349725 0.933372 0.349725 0.878991 0.349725 0.878991 0.007669985 0.878991 0.007669985 0.933372 0.007669985 0.987752 0.349725 0.987752 0.349725 0.933372 0.349725 0.933372 0.007669985 0.933372 0.007669985 0.987752 0.451884 0.860809 0.451874 0.901495 0.4658 0.863267 0.4658 0.863267 0.451874 0.901495 0.478036 0.870334 0.478036 0.870334 0.451874 0.901495 0.487117 0.88116 0.487117 0.88116 0.451874 0.901495 0.491946 0.894439 0.491946 0.894439 0.451874 0.901495 0.49194 0.90857 0.49194 0.90857 0.451874 0.901495 0.487104 0.921848 0.487104 0.921848 0.451874 0.901495 0.478019 0.932671 0.478019 0.932671 0.451874 0.901495 0.46578 0.939732 0.46578 0.939732 0.451874 0.901495 0.451864 0.94218 0.451864 0.94218 0.451874 0.901495 0.437948 0.939723 0.437948 0.939723 0.451874 0.901495 0.425712 0.932655 0.425712 0.932655 0.451874 0.901495 0.416631 0.921829 0.416631 0.921829 0.451874 0.901495 0.411802 0.908551 0.411802 0.908551 0.451874 0.901495 0.411808 0.894419 0.411808 0.894419 0.451874 0.901495 0.416644 0.881142 0.416644 0.881142 0.451874 0.901495 0.425729 0.870319 0.425729 0.870319 0.451874 0.901495 0.437967 0.863257 0.437967 0.863257 0.451874 0.901495 0.451884 0.860809 0.4658 0.863267 0.484626 0.811712 0.451942 0.805925 0.451942 0.805925 0.451884 0.860809 0.4658 0.863267 0.478036 0.870334 0.51336 0.828327 0.484626 0.811712 0.484626 0.811712 0.4658 0.863267 0.478036 0.870334 0.487117 0.88116 0.534678 0.853768 0.51336 0.828327 0.51336 0.828327 0.478036 0.870334 0.487117 0.88116 0.491946 0.894439 0.546008 0.884966 0.534678 0.853768 0.534678 0.853768 0.487117 0.88116 0.491946 0.894439 0.49194 0.90857 0.545981 0.918158 0.546008 0.884966 0.546008 0.884966 0.491946 0.894439 0.49194 0.90857 0.487104 0.921848 0.534606 0.94934 0.545981 0.918158 0.545981 0.918158 0.49194 0.90857 0.487104 0.921848 0.478019 0.932671 0.513254 0.974752 0.534606 0.94934 0.534606 0.94934 0.487104 0.921848 0.478019 0.932671 0.46578 0.939732 0.484497 0.991327 0.513254 0.974752 0.513254 0.974752 0.478019 0.932671 0.46578 0.939732 0.451864 0.94218 0.451805 0.997065 0.484497 0.991327 0.484497 0.991327 0.46578 0.939732 0.451864 0.94218 0.437948 0.939723 0.419122 0.991277 0.451805 0.997065 0.451805 0.997065 0.451864 0.94218 0.437948 0.939723 0.425712 0.932655 0.390389 0.974662 0.419122 0.991277 0.419122 0.991277 0.437948 0.939723 0.425712 0.932655 0.416631 0.921829 0.369071 0.949221 0.390389 0.974662 0.390389 0.974662 0.425712 0.932655 0.416631 0.921829 0.411802 0.908551 0.357741 0.918023 0.369071 0.949221 0.369071 0.949221 0.416631 0.921829 0.411802 0.908551 0.411808 0.894419 0.357767 0.884831 0.357741 0.918023 0.357741 0.918023 0.411802 0.908551 0.411808 0.894419 0.416644 0.881142 0.369142 0.853649 0.357767 0.884831 0.357767 0.884831 0.411808 0.894419 0.416644 0.881142 0.425729 0.870319 0.390494 0.828238 0.369142 0.853649 0.369142 0.853649 0.416644 0.881142 0.425729 0.870319 0.437967 0.863257 0.41925 0.811662 0.390494 0.828238 0.390494 0.828238 0.425729 0.870319 0.437967 0.863257 0.451884 0.860809 0.451942 0.805925 0.41925 0.811662 0.41925 0.811662 0.437967 0.863257 0.451884 0.860809 0.948705 0.4767 0.948705 0.02286499 0.901201 0.02286499 0.901201 0.02286499 0.901201 0.4767 0.948705 0.4767 0.948705 0.659232 0.948705 0.493678 0.901201 0.493678 0.901201 0.493678 0.901201 0.659232 0.948705 0.659232 0.901201 0.493678 0.948705 0.493678 0.948705 0.4767 0.948705 0.4767 0.901201 0.4767 0.901201 0.493678 0.888159 0.02286499 0.840046 0.02286499 0.840046 0.4767 0.840046 0.4767 0.888159 0.4767 0.888159 0.02286499 0.888159 0.493678 0.840046 0.493678 0.840046 0.659232 0.840046 0.659232 0.888159 0.659232 0.888159 0.493678 0.840046 0.4767 0.840046 0.493678 0.888159 0.493678 0.888159 0.493678 0.888159 0.4767 0.840046 0.4767 0.962782 0.02286499 0.948705 0.02286499 0.948705 0.4767 0.948705 0.4767 0.962782 0.4767 0.962782 0.02286499 0.888159 0.4767 0.901201 0.4767 0.901201 0.02286499 0.901201 0.02286499 0.888159 0.02286499 0.888159 0.4767 0.962782 0.493678 0.948705 0.493678 0.948705 0.659232 0.948705 0.659232 0.962782 0.659232 0.962782 0.493678 0.888159 0.659232 0.901201 0.659232 0.901201 0.493678 0.901201 0.493678 0.888159 0.493678 0.888159 0.659232 0.962782 0.4767 0.948705 0.4767 0.948705 0.493678 0.948705 0.493678 0.962782 0.493678 0.962782 0.4767 0.888159 0.493678 0.901201 0.493678 0.901201 0.4767 0.901201 0.4767 0.888159 0.4767 0.888159 0.493678 0.789118 0.839547 0.768111 0.839547 0.768111 0.975521 0.768111 0.975521 0.789118 0.975521 0.789118 0.839547 0.789118 0.487528 0.768111 0.487528 0.768111 0.796794 0.768111 0.796794 0.789118 0.796794 0.789118 0.487528 0.789118 0.796794 0.768111 0.796794 0.768111 0.839547 0.768111 0.839547 0.789118 0.839547 0.789118 0.796794 0.757363 0.975521 0.757363 0.839547 0.736548 0.839547 0.736548 0.839547 0.736548 0.975521 0.757363 0.975521 0.757363 0.796794 0.757363 0.487528 0.736548 0.487528 0.736548 0.487528 0.736548 0.796794 0.757363 0.796794 0.757363 0.839547 0.757363 0.796794 0.736548 0.796794 0.736548 0.796794 0.736548 0.839547 0.757363 0.839547 0.757363 0.975521 0.768111 0.975521 0.768111 0.839547 0.768111 0.839547 0.757363 0.839547 0.757363 0.975521 0.800193 0.839547 0.789118 0.839547 0.789118 0.975521 0.789118 0.975521 0.800193 0.975521 0.800193 0.839547 0.757363 0.796794 0.768111 0.796794 0.768111 0.487528 0.768111 0.487528 0.757363 0.487528 0.757363 0.796794 0.800193 0.487528 0.789118 0.487528 0.789118 0.796794 0.789118 0.796794 0.800193 0.796794 0.800193 0.487528 0.757363 0.839547 0.768111 0.839547 0.768111 0.796794 0.768111 0.796794 0.757363 0.796794 0.757363 0.839547 0.800193 0.796794 0.789118 0.796794 0.789118 0.839547 0.789118 0.839547 0.800193 0.839547 0.800193 0.796794 0.789118 0.487528 0.789118 0.45695 0.768111 0.45695 0.768111 0.45695 0.768111 0.487528 0.789118 0.487528 0.757363 0.487528 0.757363 0.45695 0.736548 0.45695 0.736548 0.45695 0.736548 0.487528 0.757363 0.487528 0.768111 0.487528 0.768111 0.45695 0.757363 0.45695 0.757363 0.45695 0.757363 0.487528 0.768111 0.487528 0.800193 0.487528 0.800193 0.45695 0.789118 0.45695 0.789118 0.45695 0.789118 0.487528 0.800193 0.487528 0.8033 0.369425 0.774013 0.360832 0.759309 0.405684 0.759309 0.405684 0.768552 0.426633 0.8033 0.369425 0.809794 0.305557 0.778761 0.304165 0.774013 0.360832 0.774013 0.360832 0.8033 0.369425 0.809794 0.305557 0.811482 0.2424849 0.781452 0.2439479 0.778761 0.304165 0.778761 0.304165 0.809794 0.305557 0.811482 0.2424849 0.804454 0.179921 0.775671 0.184902 0.781452 0.2439479 0.781452 0.2439479 0.811482 0.2424849 0.804454 0.179921 0.790454 0.1222389 0.765978 0.1310229 0.775671 0.184902 0.775671 0.184902 0.804454 0.179921 0.790454 0.1222389 0.759585 0.06804698 0.7486 0.08884102 0.765978 0.1310229 0.765978 0.1310229 0.790454 0.1222389 0.759585 0.06804698 0.733921 0.09269499 0.730379 0.06644397 0.723545 0.09239298 0.37587 0.393614 0.383622 0.46554 0.733138 0.403216 0.733138 0.403216 0.729996 0.35823 0.37587 0.393614 0.730124 0.302868 0.371022 0.32237 0.37587 0.393614 0.37587 0.393614 0.729996 0.35823 0.730124 0.302868 0.728271 0.245576 0.368757 0.251794 0.371022 0.32237 0.371022 0.32237 0.730124 0.302868 0.728271 0.245576 0.725483 0.1887509 0.369041 0.1818119 0.368757 0.251794 0.368757 0.251794 0.728271 0.245576 0.725483 0.1887509 0.722931 0.1361529 0.372 0.1121829 0.369041 0.1818119 0.369041 0.1818119 0.725483 0.1887509 0.722931 0.1361529 0.723545 0.09239298 0.379058 0.03650897 0.372 0.1121829 0.372 0.1121829 0.722931 0.1361529 0.723545 0.09239298 0.733138 0.403216 0.383622 0.46554 0.387512 0.488472 0.387512 0.488472 0.740487 0.428582 0.733138 0.403216 0.379058 0.03650897 0.723545 0.09239298 0.730379 0.06644397 0.730379 0.06644397 0.38255 0.013547 0.379058 0.03650897 0.733138 0.403216 0.740487 0.428582 0.743368 0.402508 0.743368 0.402508 0.759309 0.405684 0.774013 0.360832 0.774013 0.360832 0.743236 0.358555 0.743368 0.402508 0.743236 0.358555 0.774013 0.360832 0.778761 0.304165 0.778761 0.304165 0.745045 0.303064 0.743236 0.358555 0.745045 0.303064 0.778761 0.304165 0.781452 0.2439479 0.781452 0.2439479 0.743498 0.2451639 0.745045 0.303064 0.743498 0.2451639 0.781452 0.2439479 0.775671 0.184902 0.775671 0.184902 0.740465 0.187848 0.743498 0.2451639 0.740465 0.187848 0.775671 0.184902 0.765978 0.1310229 0.765978 0.1310229 0.735996 0.1352769 0.740465 0.187848 0.735996 0.1352769 0.765978 0.1310229 0.7486 0.08884102 0.7486 0.08884102 0.733921 0.09269499 0.735996 0.1352769 0.7486 0.08884102 0.759585 0.06804698 0.730379 0.06644397 0.740487 0.428582 0.768552 0.426633 0.759309 0.405684 0.729996 0.35823 0.733138 0.403216 0.743368 0.402508 0.743368 0.402508 0.743236 0.358555 0.729996 0.35823 0.730124 0.302868 0.729996 0.35823 0.743236 0.358555 0.743236 0.358555 0.745045 0.303064 0.730124 0.302868 0.728271 0.245576 0.730124 0.302868 0.745045 0.303064 0.745045 0.303064 0.743498 0.2451639 0.728271 0.245576 0.725483 0.1887509 0.728271 0.245576 0.743498 0.2451639 0.743498 0.2451639 0.740465 0.187848 0.725483 0.1887509 0.722931 0.1361529 0.725483 0.1887509 0.740465 0.187848 0.740465 0.187848 0.735996 0.1352769 0.722931 0.1361529 0.723545 0.09239298 0.722931 0.1361529 0.735996 0.1352769 0.735996 0.1352769 0.733921 0.09269499 0.723545 0.09239298 0.743368 0.402508 0.740487 0.428582 0.759309 0.405684 0.730379 0.06644397 0.733921 0.09269499 0.7486 0.08884102</float_array>
          <technique_common>
            <accessor source="#maters_road_compactor-mesh-map-0-array" count="1980" stride="2">
              <param name="S" type="float"/>
              <param name="T" type="float"/>
            </accessor>
          </technique_common>
        </source>
        <vertices id="maters_road_compactor-mesh-vertices">
          <input semantic="POSITION" source="#maters_road_compactor-mesh-positions"/>
        </vertices>
        <triangles material="maters_road_compactor_mat-material" count="660">
          <input semantic="VERTEX" source="#maters_road_compactor-mesh-vertices" offset="0"/>
          <input semantic="NORMAL" source="#maters_road_compactor-mesh-normals" offset="1"/>
          <input semantic="TEXCOORD" source="#maters_road_compactor-mesh-map-0" offset="2" set="0"/>
          <p>0 0 0 1 1 1 2 2 2 2 2 3 3 3 4 0 0 5 1 1 6 4 4 7 5 5 8 5 5 9 2 2 10 1 1 11 4 4 12 6 6 13 7 7 14 7 7 15 5 5 16 4 4 17 6 6 18 8 8 19 9 9 20 9 9 21 7 7 22 6 6 23 8 8 24 10 10 25 11 11 26 11 11 27 9 9 28 8 8 29 10 10 30 12 12 31 13 13 32 13 13 33 11 11 34 10 10 35 12 12 36 14 14 37 15 15 38 15 15 39 13 13 40 12 12 41 14 14 42 16 16 43 17 17 44 17 17 45 15 15 46 14 14 47 16 16 48 18 18 49 19 19 50 19 19 51 17 17 52 16 16 53 18 18 54 20 20 55 21 21 56 21 21 57 19 19 58 18 18 59 20 20 60 22 22 61 23 23 62 23 23 63 21 21 64 20 20 65 22 22 66 24 24 67 25 25 68 25 25 69 23 23 70 22 22 71 24 24 72 26 26 73 27 27 74 27 27 75 25 25 76 24 24 77 26 26 78 28 28 79 29 29 80 29 29 81 27 27 82 26 26 83 28 28 84 30 30 85 31 31 86 31 31 87 29 29 88 28 28 89 30 30 90 32 32 91 33 33 92 33 33 93 31 31 94 30 30 95 32 32 96 34 34 97 35 35 98 35 35 99 33 33 100 32 32 101 34 34 102 0 0 103 3 3 104 3 3 105 35 35 106 34 34 107 36 36 108 37 37 109 38 38 110 37 37 111 39 39 112 38 38 113 39 39 114 40 40 115 38 38 116 40 40 117 41 41 118 38 38 119 41 41 120 42 42 121 38 38 122 42 42 123 43 43 124 38 38 125 43 43 126 44 44 127 38 38 128 44 44 129 45 45 130 38 38 131 45 45 132 46 46 133 38 38 134 46 46 135 47 47 136 38 38 137 47 47 138 48 48 139 38 38 140 48 48 141 49 49 142 38 38 143 49 49 144 50 50 145 38 38 146 50 50 147 51 51 148 38 38 149 51 51 150 52 52 151 38 38 152 52 52 153 53 53 154 38 38 155 53 53 156 54 54 157 38 38 158 54 54 159 36 36 160 38 38 161 3 3 162 2 2 163 37 37 164 37 37 165 36 36 166 3 3 167 2 2 168 5 5 169 39 39 170 39 39 171 37 37 172 2 2 173 5 5 174 7 7 175 40 40 176 40 40 177 39 39 178 5 5 179 7 7 180 9 9 181 41 41 182 41 41 183 40 40 184 7 7 185 9 9 186 11 11 187 42 42 188 42 42 189 41 41 190 9 9 191 11 11 192 13 13 193 43 43 194 43 43 195 42 42 196 11 11 197 13 13 198 15 15 199 44 44 200 44 44 201 43 43 202 13 13 203 15 15 204 17 17 205 45 45 206 45 45 207 44 44 208 15 15 209 17 17 210 19 19 211 46 46 212 46 46 213 45 45 214 17 17 215 19 19 216 21 21 217 47 47 218 47 47 219 46 46 220 19 19 221 21 21 222 23 23 223 48 48 224 48 48 225 47 47 226 21 21 227 23 23 228 25 25 229 49 49 230 49 49 231 48 48 232 23 23 233 25 25 234 27 27 235 50 50 236 50 50 237 49 49 238 25 25 239 27 27 240 29 29 241 51 51 242 51 51 243 50 50 244 27 27 245 29 29 246 31 31 247 52 52 248 52 52 249 51 51 250 29 29 251 31 31 252 33 33 253 53 53 254 53 53 255 52 52 256 31 31 257 33 33 258 35 35 259 54 54 260 54 54 261 53 53 262 33 33 263 35 35 264 3 3 265 36 36 266 36 36 267 54 54 268 35 35 269 55 55 270 1 1 271 0 0 272 0 0 273 56 56 274 55 55 275 57 57 276 4 4 277 1 1 278 1 1 279 55 55 280 57 57 281 58 58 282 6 6 283 4 4 284 4 4 285 57 57 286 58 58 287 59 59 288 8 8 289 6 6 290 6 6 291 58 58 292 59 59 293 60 60 294 10 10 295 8 8 296 8 8 297 59 59 298 60 60 299 61 61 300 12 12 301 10 10 302 10 10 303 60 60 304 61 61 305 62 62 306 14 14 307 12 12 308 12 12 309 61 61 310 62 62 311 63 63 312 16 16 313 14 14 314 14 14 315 62 62 316 63 63 317 64 64 318 18 18 319 16 16 320 16 16 321 63 63 322 64 64 323 65 65 324 20 20 325 18 18 326 18 18 327 64 64 328 65 65 329 66 66 330 22 22 331 20 20 332 20 20 333 65 65 334 66 66 335 67 67 336 24 24 337 22 22 338 22 22 339 66 66 340 67 67 341 68 68 342 26 26 343 24 24 344 24 24 345 67 67 346 68 68 347 69 69 348 28 28 349 26 26 350 26 26 351 68 68 352 69 69 353 70 70 354 30 30 355 28 28 356 28 28 357 69 69 358 70 70 359 71 71 360 32 32 361 30 30 362 30 30 363 70 70 364 71 71 365 72 72 366 34 34 367 32 32 368 32 32 369 71 71 370 72 72 371 56 56 372 0 0 373 34 34 374 34 34 375 72 72 376 56 56 377 73 73 378 74 74 379 75 75 380 75 75 381 76 76 382 73 73 383 77 77 384 73 73 385 76 76 386 76 76 387 78 78 388 77 77 389 79 79 390 77 77 391 78 78 392 78 78 393 80 80 394 79 79 395 81 81 396 79 79 397 80 80 398 80 80 399 82 82 400 81 81 401 83 83 402 81 81 403 82 82 404 82 82 405 84 84 406 83 83 407 85 85 408 83 83 409 84 84 410 84 84 411 86 86 412 85 85 413 87 87 414 85 85 415 86 86 416 86 86 417 88 88 418 87 87 419 89 89 420 87 87 421 88 88 422 88 88 423 90 90 424 89 89 425 91 91 426 89 89 427 90 90 428 90 90 429 92 92 430 91 91 431 93 93 432 91 91 433 92 92 434 92 92 435 94 94 436 93 93 437 95 95 438 93 93 439 94 94 440 94 94 441 96 96 442 95 95 443 97 97 444 95 95 445 96 96 446 96 96 447 98 98 448 97 97 449 99 99 450 97 97 451 98 98 452 98 98 453 100 100 454 99 99 455 101 101 456 99 99 457 100 100 458 100 100 459 102 102 460 101 101 461 103 103 462 101 101 463 102 102 464 102 102 465 104 104 466 103 103 467 105 105 468 103 103 469 104 104 470 104 104 471 106 106 472 105 105 473 107 107 474 105 105 475 106 106 476 106 106 477 108 108 478 107 107 479 109 109 480 107 107 481 108 108 482 108 108 483 110 110 484 109 109 485 111 111 486 112 112 487 113 113 488 112 112 489 114 114 490 113 113 491 114 114 492 115 115 493 113 113 494 115 115 495 116 116 496 113 113 497 116 116 498 117 117 499 113 113 500 117 117 501 118 118 502 113 113 503 118 118 504 119 119 505 113 113 506 119 119 507 120 120 508 113 113 509 120 120 510 121 121 511 113 113 512 121 121 513 122 122 514 113 113 515 122 122 516 123 123 517 113 113 518 123 123 519 124 124 520 113 113 521 124 124 522 125 125 523 113 113 524 125 125 525 126 126 526 113 113 527 126 126 528 127 127 529 113 113 530 127 127 531 128 128 532 113 113 533 128 128 534 129 129 535 113 113 536 129 129 537 111 111 538 113 113 539 112 112 540 111 111 541 130 130 542 130 130 543 131 131 544 112 112 545 114 114 546 112 112 547 131 131 548 131 131 549 132 132 550 114 114 551 115 115 552 114 114 553 132 132 554 132 132 555 133 133 556 115 115 557 116 116 558 115 115 559 133 133 560 133 133 561 134 134 562 116 116 563 117 117 564 116 116 565 134 134 566 134 134 567 135 135 568 117 117 569 118 118 570 117 117 571 135 135 572 135 135 573 136 136 574 118 118 575 119 119 576 118 118 577 136 136 578 136 136 579 137 137 580 119 119 581 120 120 582 119 119 583 137 137 584 137 137 585 138 138 586 120 120 587 121 121 588 120 120 589 138 138 590 138 138 591 139 139 592 121 121 593 122 122 594 121 121 595 139 139 596 139 139 597 140 140 598 122 122 599 123 123 600 122 122 601 140 140 602 140 140 603 141 141 604 123 123 605 124 124 606 123 123 607 141 141 608 141 141 609 142 142 610 124 124 611 125 125 612 124 124 613 142 142 614 142 142 615 143 143 616 125 125 617 126 126 618 125 125 619 143 143 620 143 143 621 144 144 622 126 126 623 127 127 624 126 126 625 144 144 626 144 144 627 145 145 628 127 127 629 128 128 630 127 127 631 145 145 632 145 145 633 146 146 634 128 128 635 129 129 636 128 128 637 146 146 638 146 146 639 147 147 640 129 129 641 111 111 642 129 129 643 147 147 644 147 147 645 130 130 646 111 111 647 148 148 648 149 149 649 150 150 650 150 150 651 151 151 652 148 148 653 152 152 654 153 153 655 154 154 656 154 154 657 155 155 658 152 152 659 154 154 660 149 149 661 148 148 662 148 148 663 155 155 664 154 154 665 156 156 666 157 157 667 158 158 668 158 158 669 159 159 670 156 156 671 160 160 672 161 161 673 162 162 674 162 162 675 163 163 676 160 160 677 158 158 678 157 157 679 160 160 680 160 160 681 163 163 682 158 158 683 164 164 684 165 165 685 148 148 686 148 148 687 151 151 688 164 164 689 157 157 690 156 156 691 150 150 692 150 150 693 149 149 694 157 157 695 166 166 696 167 167 697 152 152 698 152 152 699 155 155 700 166 166 701 161 161 702 160 160 703 154 154 704 154 154 705 153 153 706 161 161 707 165 165 708 166 166 709 155 155 710 155 155 711 148 148 712 165 165 713 160 160 714 157 157 715 149 149 716 149 149 717 154 154 718 160 160 719 168 168 720 169 169 721 170 170 722 170 170 723 171 171 724 168 168 725 172 172 726 173 173 727 174 174 728 174 174 729 175 175 730 172 172 731 173 173 732 168 168 733 171 171 734 171 171 735 174 174 736 173 173 737 176 176 738 177 177 739 178 178 740 178 178 741 179 179 742 176 176 743 180 180 744 181 181 745 182 182 746 182 182 747 183 183 748 180 180 749 179 179 750 178 178 751 181 181 752 181 181 753 180 180 754 179 179 755 176 176 756 179 179 757 171 171 758 171 171 759 170 170 760 176 176 761 184 184 762 185 185 763 169 169 764 169 169 765 168 168 766 184 184 767 180 180 768 183 183 769 175 175 770 175 175 771 174 174 772 180 180 773 186 186 774 187 187 775 173 173 776 173 173 777 172 172 778 186 186 779 179 179 780 180 180 781 174 174 782 174 174 783 171 171 784 179 179 785 187 187 786 184 184 787 168 168 788 168 168 789 173 173 790 187 187 791 172 172 792 175 175 793 188 188 794 188 188 795 189 189 796 172 172 797 183 183 798 182 182 799 190 190 800 190 190 801 191 191 802 183 183 803 175 175 804 183 183 805 191 191 806 191 191 807 188 188 808 175 175 809 186 186 810 172 172 811 189 189 812 189 189 813 192 192 814 186 186 815 193 193 816 194 194 817 195 195 818 195 195 819 196 196 820 193 193 821 197 197 822 193 193 823 196 196 824 196 196 825 198 198 826 197 197 827 199 199 828 197 197 829 198 198 830 198 198 831 200 200 832 199 199 833 201 201 834 199 199 835 200 200 836 200 200 837 202 202 838 201 201 839 203 203 840 201 201 841 202 202 842 202 202 843 204 204 844 203 203 845 205 205 846 203 203 847 204 204 848 204 204 849 206 206 850 205 205 851 207 207 852 208 208 853 209 209 854 210 210 855 211 211 856 212 212 857 212 212 858 213 213 859 210 210 860 214 214 861 211 211 862 210 210 863 210 210 864 215 215 865 214 214 866 216 216 867 214 214 868 215 215 869 215 215 870 217 217 871 216 216 872 218 218 873 216 216 874 217 217 875 217 217 876 219 219 877 218 218 878 220 220 879 218 218 880 219 219 881 219 219 882 221 221 883 220 220 884 208 208 885 220 220 886 221 221 887 221 221 888 222 222 889 208 208 890 212 212 891 223 223 892 224 224 893 224 224 894 213 213 895 212 212 896 222 222 897 225 225 898 209 209 899 209 209 900 208 208 901 222 222 902 212 212 903 226 226 904 223 223 905 226 226 906 227 227 907 196 196 908 196 196 909 195 195 910 226 226 911 227 227 912 228 228 913 198 198 914 198 198 915 196 196 916 227 227 917 228 228 918 229 229 919 200 200 920 200 200 921 198 198 922 228 228 923 229 229 924 230 230 925 202 202 926 202 202 927 200 200 928 229 229 929 230 230 930 231 231 931 204 204 932 204 204 933 202 202 934 230 230 935 231 231 936 207 207 937 206 206 938 206 206 939 204 204 940 231 231 941 206 206 942 209 209 943 205 205 944 223 223 945 195 195 946 194 194 947 211 211 948 227 227 949 226 226 950 226 226 951 212 212 952 211 211 953 214 214 954 228 228 955 227 227 956 227 227 957 211 211 958 214 214 959 216 216 960 229 229 961 228 228 962 228 228 963 214 214 964 216 216 965 218 218 966 230 230 967 229 229 968 229 229 969 216 216 970 218 218 971 220 220 972 231 231 973 230 230 974 230 230 975 218 218 976 220 220 977 208 208 978 207 207 979 231 231 980 231 231 981 220 220 982 208 208 983 226 226 984 195 195 985 223 223 986 209 209 987 206 206 988 207 207 989 232 232 990 233 233 991 234 234 992 234 234 993 235 235 994 232 232 995 235 235 996 234 234 997 236 236 998 236 236 999 237 237 1000 235 235 1001 237 237 1002 236 236 1003 238 238 1004 238 238 1005 239 239 1006 237 237 1007 239 239 1008 238 238 1009 240 240 1010 240 240 1011 241 241 1012 239 239 1013 241 241 1014 240 240 1015 242 242 1016 242 242 1017 243 243 1018 241 241 1019 243 243 1020 242 242 1021 244 244 1022 244 244 1023 245 245 1024 243 243 1025 245 245 1026 244 244 1027 246 246 1028 246 246 1029 247 247 1030 245 245 1031 247 247 1032 246 246 1033 248 248 1034 248 248 1035 249 249 1036 247 247 1037 249 249 1038 248 248 1039 250 250 1040 250 250 1041 251 251 1042 249 249 1043 251 251 1044 250 250 1045 252 252 1046 252 252 1047 253 253 1048 251 251 1049 253 253 1050 252 252 1051 254 254 1052 254 254 1053 255 255 1054 253 253 1055 255 255 1056 254 254 1057 256 256 1058 256 256 1059 257 257 1060 255 255 1061 257 257 1062 256 256 1063 258 258 1064 258 258 1065 259 259 1066 257 257 1067 259 259 1068 258 258 1069 260 260 1070 260 260 1071 261 261 1072 259 259 1073 261 261 1074 260 260 1075 262 262 1076 262 262 1077 263 263 1078 261 261 1079 263 263 1080 262 262 1081 264 264 1082 264 264 1083 265 265 1084 263 263 1085 265 265 1086 264 264 1087 266 266 1088 266 266 1089 267 267 1090 265 265 1091 267 267 1092 266 266 1093 233 233 1094 233 233 1095 232 232 1096 267 267 1097 268 268 1098 269 269 1099 270 270 1100 270 270 1101 269 269 1102 271 271 1103 271 271 1104 269 269 1105 272 272 1106 272 272 1107 269 269 1108 273 273 1109 273 273 1110 269 269 1111 274 274 1112 274 274 1113 269 269 1114 275 275 1115 275 275 1116 269 269 1117 276 276 1118 276 276 1119 269 269 1120 277 277 1121 277 277 1122 269 269 1123 278 278 1124 278 278 1125 269 269 1126 279 279 1127 279 279 1128 269 269 1129 280 280 1130 280 280 1131 269 269 1132 281 281 1133 281 281 1134 269 269 1135 282 282 1136 282 282 1137 269 269 1138 283 283 1139 283 283 1140 269 269 1141 284 284 1142 284 284 1143 269 269 1144 285 285 1145 285 285 1146 269 269 1147 286 286 1148 286 286 1149 269 269 1150 268 268 1151 233 233 1152 268 268 1153 270 270 1154 270 270 1155 234 234 1156 233 233 1157 234 234 1158 270 270 1159 271 271 1160 271 271 1161 236 236 1162 234 234 1163 236 236 1164 271 271 1165 272 272 1166 272 272 1167 238 238 1168 236 236 1169 238 238 1170 272 272 1171 273 273 1172 273 273 1173 240 240 1174 238 238 1175 240 240 1176 273 273 1177 274 274 1178 274 274 1179 242 242 1180 240 240 1181 242 242 1182 274 274 1183 275 275 1184 275 275 1185 244 244 1186 242 242 1187 244 244 1188 275 275 1189 276 276 1190 276 276 1191 246 246 1192 244 244 1193 246 246 1194 276 276 1195 277 277 1196 277 277 1197 248 248 1198 246 246 1199 248 248 1200 277 277 1201 278 278 1202 278 278 1203 250 250 1204 248 248 1205 250 250 1206 278 278 1207 279 279 1208 279 279 1209 252 252 1210 250 250 1211 252 252 1212 279 279 1213 280 280 1214 280 280 1215 254 254 1216 252 252 1217 254 254 1218 280 280 1219 281 281 1220 281 281 1221 256 256 1222 254 254 1223 256 256 1224 281 281 1225 282 282 1226 282 282 1227 258 258 1228 256 256 1229 258 258 1230 282 282 1231 283 283 1232 283 283 1233 260 260 1234 258 258 1235 260 260 1236 283 283 1237 284 284 1238 284 284 1239 262 262 1240 260 260 1241 262 262 1242 284 284 1243 285 285 1244 285 285 1245 264 264 1246 262 262 1247 264 264 1248 285 285 1249 286 286 1250 286 286 1251 266 266 1252 264 264 1253 266 266 1254 286 286 1255 268 268 1256 268 268 1257 233 233 1258 266 266 1259 287 287 1260 288 288 1261 232 232 1262 232 232 1263 235 235 1264 287 287 1265 289 289 1266 287 287 1267 235 235 1268 235 235 1269 237 237 1270 289 289 1271 290 290 1272 289 289 1273 237 237 1274 237 237 1275 239 239 1276 290 290 1277 291 291 1278 290 290 1279 239 239 1280 239 239 1281 241 241 1282 291 291 1283 292 292 1284 291 291 1285 241 241 1286 241 241 1287 243 243 1288 292 292 1289 293 293 1290 292 292 1291 243 243 1292 243 243 1293 245 245 1294 293 293 1295 294 294 1296 293 293 1297 245 245 1298 245 245 1299 247 247 1300 294 294 1301 295 295 1302 294 294 1303 247 247 1304 247 247 1305 249 249 1306 295 295 1307 296 296 1308 295 295 1309 249 249 1310 249 249 1311 251 251 1312 296 296 1313 297 297 1314 296 296 1315 251 251 1316 251 251 1317 253 253 1318 297 297 1319 298 298 1320 297 297 1321 253 253 1322 253 253 1323 255 255 1324 298 298 1325 299 299 1326 298 298 1327 255 255 1328 255 255 1329 257 257 1330 299 299 1331 300 300 1332 299 299 1333 257 257 1334 257 257 1335 259 259 1336 300 300 1337 301 301 1338 300 300 1339 259 259 1340 259 259 1341 261 261 1342 301 301 1343 302 302 1344 301 301 1345 261 261 1346 261 261 1347 263 263 1348 302 302 1349 303 303 1350 302 302 1351 263 263 1352 263 263 1353 265 265 1354 303 303 1355 304 304 1356 303 303 1357 265 265 1358 265 265 1359 267 267 1360 304 304 1361 288 288 1362 304 304 1363 267 267 1364 267 267 1365 232 232 1366 288 288 1367 305 305 1368 76 76 1369 75 75 1370 75 75 1371 306 306 1372 305 305 1373 307 307 1374 78 78 1375 76 76 1376 76 76 1377 305 305 1378 307 307 1379 308 308 1380 80 80 1381 78 78 1382 78 78 1383 307 307 1384 308 308 1385 309 309 1386 82 82 1387 80 80 1388 80 80 1389 308 308 1390 309 309 1391 310 310 1392 84 84 1393 82 82 1394 82 82 1395 309 309 1396 310 310 1397 311 311 1398 86 86 1399 84 84 1400 84 84 1401 310 310 1402 311 311 1403 312 312 1404 88 88 1405 86 86 1406 86 86 1407 311 311 1408 312 312 1409 313 313 1410 90 90 1411 88 88 1412 88 88 1413 312 312 1414 313 313 1415 314 314 1416 92 92 1417 90 90 1418 90 90 1419 313 313 1420 314 314 1421 315 315 1422 94 94 1423 92 92 1424 92 92 1425 314 314 1426 315 315 1427 316 316 1428 96 96 1429 94 94 1430 94 94 1431 315 315 1432 316 316 1433 317 317 1434 98 98 1435 96 96 1436 96 96 1437 316 316 1438 317 317 1439 318 318 1440 100 100 1441 98 98 1442 98 98 1443 317 317 1444 318 318 1445 319 319 1446 102 102 1447 100 100 1448 100 100 1449 318 318 1450 319 319 1451 320 320 1452 104 104 1453 102 102 1454 102 102 1455 319 319 1456 320 320 1457 321 321 1458 106 106 1459 104 104 1460 104 104 1461 320 320 1462 321 321 1463 322 322 1464 108 108 1465 106 106 1466 106 106 1467 321 321 1468 322 322 1469 323 323 1470 110 110 1471 108 108 1472 108 108 1473 322 322 1474 323 323 1475 324 324 1476 325 325 1477 326 326 1478 326 326 1479 325 325 1480 327 327 1481 327 327 1482 325 325 1483 328 328 1484 328 328 1485 325 325 1486 329 329 1487 329 329 1488 325 325 1489 330 330 1490 330 330 1491 325 325 1492 331 331 1493 331 331 1494 325 325 1495 332 332 1496 332 332 1497 325 325 1498 333 333 1499 333 333 1500 325 325 1501 334 334 1502 334 334 1503 325 325 1504 335 335 1505 335 335 1506 325 325 1507 336 336 1508 336 336 1509 325 325 1510 337 337 1511 337 337 1512 325 325 1513 338 338 1514 338 338 1515 325 325 1516 339 339 1517 339 339 1518 325 325 1519 340 340 1520 340 340 1521 325 325 1522 341 341 1523 341 341 1524 325 325 1525 342 342 1526 342 342 1527 325 325 1528 324 324 1529 326 326 1530 343 343 1531 344 344 1532 344 344 1533 324 324 1534 326 326 1535 327 327 1536 345 345 1537 343 343 1538 343 343 1539 326 326 1540 327 327 1541 328 328 1542 346 346 1543 345 345 1544 345 345 1545 327 327 1546 328 328 1547 329 329 1548 347 347 1549 346 346 1550 346 346 1551 328 328 1552 329 329 1553 330 330 1554 348 348 1555 347 347 1556 347 347 1557 329 329 1558 330 330 1559 331 331 1560 349 349 1561 348 348 1562 348 348 1563 330 330 1564 331 331 1565 332 332 1566 350 350 1567 349 349 1568 349 349 1569 331 331 1570 332 332 1571 333 333 1572 351 351 1573 350 350 1574 350 350 1575 332 332 1576 333 333 1577 334 334 1578 352 352 1579 351 351 1580 351 351 1581 333 333 1582 334 334 1583 335 335 1584 353 353 1585 352 352 1586 352 352 1587 334 334 1588 335 335 1589 336 336 1590 354 354 1591 353 353 1592 353 353 1593 335 335 1594 336 336 1595 337 337 1596 355 355 1597 354 354 1598 354 354 1599 336 336 1600 337 337 1601 338 338 1602 356 356 1603 355 355 1604 355 355 1605 337 337 1606 338 338 1607 339 339 1608 357 357 1609 356 356 1610 356 356 1611 338 338 1612 339 339 1613 340 340 1614 358 358 1615 357 357 1616 357 357 1617 339 339 1618 340 340 1619 341 341 1620 359 359 1621 358 358 1622 358 358 1623 340 340 1624 341 341 1625 342 342 1626 360 360 1627 359 359 1628 359 359 1629 341 341 1630 342 342 1631 324 324 1632 344 344 1633 360 360 1634 360 360 1635 342 342 1636 324 324 1637 361 361 1638 151 151 1639 150 150 1640 150 150 1641 362 362 1642 361 361 1643 363 363 1644 364 364 1645 365 365 1646 365 365 1647 366 366 1648 363 363 1649 365 365 1650 364 364 1651 361 361 1652 361 361 1653 362 362 1654 365 365 1655 156 156 1656 159 159 1657 367 367 1658 367 367 1659 368 368 1660 156 156 1661 369 369 1662 370 370 1663 371 371 1664 371 371 1665 372 372 1666 369 369 1667 367 367 1668 370 370 1669 369 369 1670 369 369 1671 368 368 1672 367 367 1673 164 164 1674 151 151 1675 361 361 1676 361 361 1677 373 373 1678 164 164 1679 368 368 1680 362 362 1681 150 150 1682 150 150 1683 156 156 1684 368 368 1685 374 374 1686 364 364 1687 363 363 1688 363 363 1689 375 375 1690 374 374 1691 372 372 1692 366 366 1693 365 365 1694 365 365 1695 369 369 1696 372 372 1697 373 373 1698 361 361 1699 364 364 1700 364 364 1701 374 374 1702 373 373 1703 369 369 1704 365 365 1705 362 362 1706 362 362 1707 368 368 1708 369 369 1709 376 376 1710 377 377 1711 378 378 1712 378 378 1713 379 379 1714 376 376 1715 380 380 1716 381 381 1717 382 382 1718 382 382 1719 383 383 1720 380 380 1721 383 383 1722 382 382 1723 377 377 1724 377 377 1725 376 376 1726 383 383 1727 384 384 1728 385 385 1729 386 386 1730 386 386 1731 387 387 1732 384 384 1733 388 388 1734 389 389 1735 390 390 1736 390 390 1737 391 391 1738 388 388 1739 385 385 1740 388 388 1741 391 391 1742 391 391 1743 386 386 1744 385 385 1745 384 384 1746 378 378 1747 377 377 1748 377 377 1749 385 385 1750 384 384 1751 392 392 1752 376 376 1753 379 379 1754 379 379 1755 393 393 1756 392 392 1757 388 388 1758 382 382 1759 381 381 1760 381 381 1761 389 389 1762 388 388 1763 394 394 1764 380 380 1765 383 383 1766 383 383 1767 395 395 1768 394 394 1769 385 385 1770 377 377 1771 382 382 1772 382 382 1773 388 388 1774 385 385 1775 395 395 1776 383 383 1777 376 376 1778 376 376 1779 392 392 1780 395 395 1781 380 380 1782 396 396 1783 397 397 1784 397 397 1785 381 381 1786 380 380 1787 389 389 1788 398 398 1789 399 399 1790 399 399 1791 390 390 1792 389 389 1793 381 381 1794 397 397 1795 398 398 1796 398 398 1797 389 389 1798 381 381 1799 394 394 1800 400 400 1801 396 396 1802 396 396 1803 380 380 1804 394 394 1805 401 401 1806 402 402 1807 403 403 1808 403 403 1809 404 404 1810 401 401 1811 405 197 1812 406 405 1813 402 402 1814 402 402 1815 401 401 1816 405 197 1817 407 406 1818 408 407 1819 406 405 1820 406 405 1821 405 197 1822 407 406 1823 409 408 1824 410 409 1825 408 407 1826 408 407 1827 407 406 1828 409 408 1829 411 410 1830 412 411 1831 410 409 1832 410 409 1833 409 408 1834 411 410 1835 413 412 1836 414 413 1837 412 411 1838 412 411 1839 411 410 1840 413 412 1841 415 414 1842 416 415 1843 417 416 1844 210 210 1845 213 213 1846 418 417 1847 418 417 1848 419 418 1849 210 210 1850 420 419 1851 215 215 1852 210 210 1853 210 210 1854 419 418 1855 420 419 1856 421 420 1857 217 217 1858 215 215 1859 215 215 1860 420 419 1861 421 420 1862 422 421 1863 219 219 1864 217 217 1865 217 217 1866 421 420 1867 422 421 1868 423 422 1869 221 221 1870 219 219 1871 219 219 1872 422 421 1873 423 422 1874 417 416 1875 222 222 1876 221 221 1877 221 221 1878 423 422 1879 417 416 1880 418 417 1881 213 213 1882 224 224 1883 224 224 1884 424 423 1885 418 417 1886 222 222 1887 417 416 1888 416 415 1889 416 415 1890 225 225 1891 222 222 1892 418 417 1893 424 423 1894 425 424 1895 425 424 1896 403 403 1897 402 402 1898 402 402 1899 426 425 1900 425 424 1901 426 425 1902 402 402 1903 406 405 1904 406 405 1905 427 426 1906 426 425 1907 427 426 1908 406 405 1909 408 407 1910 408 407 1911 428 427 1912 427 426 1913 428 427 1914 408 407 1915 410 409 1916 410 409 1917 429 428 1918 428 427 1919 429 428 1920 410 409 1921 412 411 1922 412 411 1923 430 429 1924 429 428 1925 430 429 1926 412 411 1927 414 413 1928 414 413 1929 415 414 1930 430 429 1931 414 413 1932 413 412 1933 416 415 1934 424 423 1935 404 404 1936 403 403 1937 419 418 1938 418 417 1939 425 424 1940 425 424 1941 426 425 1942 419 418 1943 420 419 1944 419 418 1945 426 425 1946 426 425 1947 427 426 1948 420 419 1949 421 420 1950 420 419 1951 427 426 1952 427 426 1953 428 427 1954 421 420 1955 422 421 1956 421 420 1957 428 427 1958 428 427 1959 429 428 1960 422 421 1961 423 422 1962 422 421 1963 429 428 1964 429 428 1965 430 429 1966 423 422 1967 417 416 1968 423 422 1969 430 429 1970 430 429 1971 415 414 1972 417 416 1973 425 424 1974 424 423 1975 403 403 1976 416 415 1977 415 414 1978 414 413 1979</p>
        </triangles>
      </mesh>
    </geometry>
  </library_geometries>
  <library_controllers>
    <controller id="Armature_maters_road_compactor-skin" name="Armature">
      <skin source="#maters_road_compactor-mesh">
        <bind_shape_matrix>1 0 0 0 0 1 0 0 0 0 1 0 0 0 0 1</bind_shape_matrix>
        <source id="Armature_maters_road_compactor-skin-joints">
          <Name_array id="Armature_maters_road_compactor-skin-joints-array" count="3">compactor_handle compactor_roller compactor_guard</Name_array>
          <technique_common>
            <accessor source="#Armature_maters_road_compactor-skin-joints-array" count="3" stride="1">
              <param name="JOINT" type="name"/>
            </accessor>
          </technique_common>
        </source>
        <source id="Armature_maters_road_compactor-skin-bind_poses">
          <float_array id="Armature_maters_road_compactor-skin-bind_poses-array" count="48">100 0 0 1.1e-5 0 100 -1.19209e-5 1.5e-5 0 1.19209e-5 100 2.51324 0 0 0 1 100 0 0 1.6e-5 0 100 -1.19209e-5 -477.346 0 1.19209e-5 100 171.493 0 0 0 1 100 0 0 1.5e-5 0 100 -1.19209e-5 -558.4215 0 1.19209e-5 100 -44.46738 0 0 0 1</float_array>
          <technique_common>
            <accessor source="#Armature_maters_road_compactor-skin-bind_poses-array" count="3" stride="16">
              <param name="TRANSFORM" type="float4x4"/>
            </accessor>
          </technique_common>
        </source>
        <source id="Armature_maters_road_compactor-skin-weights">
          <float_array id="Armature_maters_road_compactor-skin-weights-array" count="431">1 1 1 1 1 1 1 1 1 1 1 1 1 1 1 1 1 1 1 1 1 1 1 1 1 1 1 1 1 1 1 1 1 1 1 1 1 1 1 1 1 1 1 1 1 1 1 1 1 1 1 1 1 1 1 1 1 1 1 1 1 1 1 1 1 1 1 1 1 1 1 1 1 1 1 1 1 1 1 1 1 1 1 1 1 1 1 1 1 1 1 1 1 1 1 1 1 1 1 1 1 1 1 1 1 1 1 1 1 1 1 1 1 1 1 1 1 1 1 1 1 1 1 1 1 1 1 1 1 1 1 1 1 1 1 1 1 1 1 1 1 1 1 1 1 1 1 1 1 1 1 1 1 1 1 1 1 1 1 1 1 1 1 1 1 1 1 1 1 1 1 1 1 1 1 1 1 1 1 1 1 1 1 1 1 1 1 1 1 1 1 1 1 1 1 1 1 1 1 1 1 1 1 1 1 1 1 1 1 1 1 1 1 1 1 1 1 1 1 1 1 1 1 1 1 1 1 1 1 1 1 1 1 1 1 1 1 1 1 1 1 1 1 1 1 1 1 1 1 1 1 1 1 1 1 1 1 1 1 1 1 1 1 1 1 1 1 1 1 1 1 1 1 1 1 1 1 1 1 1 1 1 1 1 1 1 1 1 1 1 1 1 1 1 1 1 1 1 1 1 1 1 1 1 1 1 1 1 1 1 1 1 1 1 1 1 1 1 1 1 1 1 1 1 1 1 1 1 1 1 1 1 1 1 1 1 1 1 1 1 1 1 1 1 1 1 1 1 1 1 1 1 1 1 1 1 1 1 1 1 1 1 1 1 1 1 1 1 1 1 1 1 1 1 1 1 1 1 1 1 1 1 1 1 1 1 1 1 1 1 1 1 1 1 1 1 1 1 1 1 1 1 1 1 1 1 1 1 1 1 1 1 1 1 1 1 1 1 1 1 1 1 1 1 1 1 1 1 1 1 1</float_array>
          <technique_common>
            <accessor source="#Armature_maters_road_compactor-skin-weights-array" count="431" stride="1">
              <param name="WEIGHT" type="float"/>
            </accessor>
          </technique_common>
        </source>
        <joints>
          <input semantic="JOINT" source="#Armature_maters_road_compactor-skin-joints"/>
          <input semantic="INV_BIND_MATRIX" source="#Armature_maters_road_compactor-skin-bind_poses"/>
        </joints>
        <vertex_weights count="431">
          <input semantic="JOINT" source="#Armature_maters_road_compactor-skin-joints" offset="0"/>
          <input semantic="WEIGHT" source="#Armature_maters_road_compactor-skin-weights" offset="1"/>
          <vcount>1 1 1 1 1 1 1 1 1 1 1 1 1 1 1 1 1 1 1 1 1 1 1 1 1 1 1 1 1 1 1 1 1 1 1 1 1 1 1 1 1 1 1 1 1 1 1 1 1 1 1 1 1 1 1 1 1 1 1 1 1 1 1 1 1 1 1 1 1 1 1 1 1 1 1 1 1 1 1 1 1 1 1 1 1 1 1 1 1 1 1 1 1 1 1 1 1 1 1 1 1 1 1 1 1 1 1 1 1 1 1 1 1 1 1 1 1 1 1 1 1 1 1 1 1 1 1 1 1 1 1 1 1 1 1 1 1 1 1 1 1 1 1 1 1 1 1 1 1 1 1 1 1 1 1 1 1 1 1 1 1 1 1 1 1 1 1 1 1 1 1 1 1 1 1 1 1 1 1 1 1 1 1 1 1 1 1 1 1 1 1 1 1 1 1 1 1 1 1 1 1 1 1 1 1 1 1 1 1 1 1 1 1 1 1 1 1 1 1 1 1 1 1 1 1 1 1 1 1 1 1 1 1 1 1 1 1 1 1 1 1 1 1 1 1 1 1 1 1 1 1 1 1 1 1 1 1 1 1 1 1 1 1 1 1 1 1 1 1 1 1 1 1 1 1 1 1 1 1 1 1 1 1 1 1 1 1 1 1 1 1 1 1 1 1 1 1 1 1 1 1 1 1 1 1 1 1 1 1 1 1 1 1 1 1 1 1 1 1 1 1 1 1 1 1 1 1 1 1 1 1 1 1 1 1 1 1 1 1 1 1 1 1 1 1 1 1 1 1 1 1 1 1 1 1 1 1 1 1 1 1 1 1 1 1 1 1 1 1 1 1 1 1 1 1 1 1 1 1 1 1 1 1 1 1 1 1 1 1 1 1 1 1 1 1 1 1 1 1 1 1 1 1 1 1 1 1 1 1 1 1 1 1 1 1 1 1 1 1 1 1 1 1 1 1 1 1 1 1 1 1 </vcount>
          <v>1 0 1 1 1 2 1 3 1 4 1 5 1 6 1 7 1 8 1 9 1 10 1 11 1 12 1 13 1 14 1 15 1 16 1 17 1 18 1 19 1 20 1 21 1 22 1 23 1 24 1 25 1 26 1 27 1 28 1 29 1 30 1 31 1 32 1 33 1 34 1 35 1 36 1 37 1 38 1 39 1 40 1 41 1 42 1 43 1 44 1 45 1 46 1 47 1 48 1 49 1 50 1 51 1 52 1 53 1 54 1 55 1 56 1 57 1 58 1 59 1 60 1 61 1 62 1 63 1 64 1 65 1 66 1 67 1 68 1 69 1 70 1 71 1 72 1 73 1 74 1 75 1 76 1 77 1 78 1 79 1 80 1 81 1 82 1 83 1 84 1 85 1 86 1 87 1 88 1 89 1 90 1 91 1 92 1 93 1 94 1 95 1 96 1 97 1 98 1 99 1 100 1 101 1 102 1 103 1 104 1 105 1 106 1 107 1 108 1 109 1 110 0 111 0 112 0 113 0 114 0 115 0 116 0 117 0 118 0 119 0 120 0 121 0 122 0 123 0 124 0 125 0 126 0 127 0 128 0 129 0 130 0 131 0 132 0 133 0 134 0 135 0 136 0 137 0 138 0 139 0 140 0 141 0 142 0 143 0 144 0 145 0 146 0 147 0 148 0 149 0 150 0 151 0 152 0 153 0 154 0 155 0 156 0 157 0 158 0 159 0 160 0 161 0 162 0 163 0 164 0 165 0 166 0 167 0 168 0 169 0 170 0 171 0 172 0 173 0 174 0 175 0 176 0 177 0 178 0 179 0 180 0 181 0 182 0 183 0 184 0 185 0 186 0 187 0 188 0 189 0 190 0 191 0 192 2 193 2 194 2 195 2 196 2 197 2 198 2 199 2 200 2 201 2 202 2 203 2 204 2 205 2 206 2 207 2 208 2 209 2 210 2 211 2 212 2 213 2 214 2 215 2 216 2 217 2 218 2 219 2 220 2 221 2 222 2 223 2 224 2 225 2 226 2 227 2 228 2 229 2 230 2 231 1 232 1 233 1 234 1 235 1 236 1 237 1 238 1 239 1 240 1 241 1 242 1 243 1 244 1 245 1 246 1 247 1 248 1 249 1 250 1 251 1 252 1 253 1 254 1 255 1 256 1 257 1 258 1 259 1 260 1 261 1 262 1 263 1 264 1 265 1 266 1 267 1 268 1 269 1 270 1 271 1 272 1 273 1 274 1 275 1 276 1 277 1 278 1 279 1 280 1 281 1 282 1 283 1 284 1 285 1 286 1 287 1 288 1 289 1 290 1 291 1 292 1 293 1 294 1 295 1 296 1 297 1 298 1 299 1 300 1 301 1 302 1 303 1 304 1 305 1 306 1 307 1 308 1 309 1 310 1 311 1 312 1 313 1 314 1 315 1 316 1 317 1 318 1 319 1 320 1 321 1 322 1 323 0 324 0 325 0 326 0 327 0 328 0 329 0 330 0 331 0 332 0 333 0 334 0 335 0 336 0 337 0 338 0 339 0 340 0 341 0 342 0 343 0 344 0 345 0 346 0 347 0 348 0 349 0 350 0 351 0 352 0 353 0 354 0 355 0 356 0 357 0 358 0 359 0 360 0 361 0 362 0 363 0 364 0 365 0 366 0 367 0 368 0 369 0 370 0 371 0 372 0 373 0 374 0 375 0 376 0 377 0 378 0 379 0 380 0 381 0 382 0 383 0 384 0 385 0 386 0 387 0 388 0 389 0 390 0 391 0 392 0 393 0 394 0 395 0 396 0 397 0 398 0 399 0 400 2 401 2 402 2 403 2 404 2 405 2 406 2 407 2 408 2 409 2 410 2 411 2 412 2 413 2 414 2 415 2 416 2 417 2 418 2 419 2 420 2 421 2 422 2 423 2 424 2 425 2 426 2 427 2 428 2 429 2 430</v>
        </vertex_weights>
      </skin>
    </controller>
  </library_controllers>
  <library_visual_scenes>
    <visual_scene id="Scene" name="Scene">
      <node id="Armature" name="Armature" type="NODE">
        <matrix sid="transform">0.01 0 0 0 0 0.01 1.19209e-9 0 0 -1.19209e-9 0.01 0 0 0 0 1</matrix>
        <node id="Armature_compactor_handle" name="compactor_handle" sid="compactor_handle" type="JOINT">
          <matrix sid="transform">1 0 0 -1.1e-5 0 1 0 -1.5e-5 0 0 1 -2.51324 0 0 0 1</matrix>
          <node id="Armature_compactor_roller" name="compactor_roller" sid="compactor_roller" type="JOINT">
            <matrix sid="transform">1 0 0 -5e-6 0 1 0 477.346 0 0 1 -168.9798 0 0 0 1</matrix>
            <extra>
              <technique profile="blender">
                <tip_x sid="tip_x" type="float">0</tip_x>
                <tip_y sid="tip_y" type="float">506.3728</tip_y>
                <tip_z sid="tip_z" type="float">0</tip_z>
              </technique>
            </extra>
          </node>
          <node id="Armature_compactor_guard" name="compactor_guard" sid="compactor_guard" type="JOINT">
            <matrix sid="transform">1 0 0 -4e-6 0 1 0 558.4215 0 0 1 46.98062 0 0 0 1</matrix>
            <extra>
              <technique profile="blender">
                <tip_x sid="tip_x" type="float">0</tip_x>
                <tip_y sid="tip_y" type="float">506.3728</tip_y>
                <tip_z sid="tip_z" type="float">0</tip_z>
              </technique>
            </extra>
          </node>
          <extra>
            <technique profile="blender">
              <tip_x sid="tip_x" type="float">0</tip_x>
              <tip_y sid="tip_y" type="float">506.3728</tip_y>
              <tip_z sid="tip_z" type="float">0</tip_z>
            </technique>
          </extra>
        </node>
        <node id="maters_road_compactor" name="maters_road_compactor" type="NODE">
          <matrix sid="transform">1 0 0 0 0 1 0 0 0 0 1 0 0 0 0 1</matrix>
          <instance_controller url="#Armature_maters_road_compactor-skin">
            <skeleton>#Armature_compactor_handle</skeleton>
            <bind_material>
              <technique_common>
                <instance_material symbol="maters_road_compactor_mat-material" target="#maters_road_compactor_mat-material">
                  <bind_vertex_input semantic="GeometrySource2" input_semantic="TEXCOORD" input_set="0"/>
                </instance_material>
              </technique_common>
            </bind_material>
          </instance_controller>
        </node>
      </node>
    </visual_scene>
  </library_visual_scenes>
  <scene>
    <instance_visual_scene url="#Scene"/>
  </scene>
</COLLADA>