<?xml version="1.0" encoding="utf-8"?>
<COLLADA xmlns="http://www.collada.org/2005/11/COLLADASchema" version="1.4.1" xmlns:xsi="http://www.w3.org/2001/XMLSchema-instance">
  <asset>
    <contributor>
      <author>Blender User</author>
      <authoring_tool>Blender 4.3.2 commit date:2024-12-16, commit time:21:10, hash:32f5fdce0a0a</authoring_tool>
    </contributor>
    <created>2025-07-17T02:44:54</created>
    <modified>2025-07-17T02:44:54</modified>
    <unit name="meter" meter="1"/>
    <up_axis>Z_UP</up_axis>
  </asset>
  <library_effects>
    <effect id="Material__78-effect">
      <profile_COMMON>
        <newparam sid="mcqueens_advertising_stand_diff_png-surface">
          <surface type="2D">
            <init_from>mcqueens_advertising_stand_diff_png</init_from>
          </surface>
        </newparam>
        <newparam sid="mcqueens_advertising_stand_diff_png-sampler">
          <sampler2D>
            <source>mcqueens_advertising_stand_diff_png-surface</source>
          </sampler2D>
        </newparam>
        <technique sid="common">
          <lambert>
            <emission>
              <color sid="emission">0 0 0 1</color>
            </emission>
            <diffuse>
              <texture texture="mcqueens_advertising_stand_diff_png-sampler" texcoord="mcqueens_advertising_stand-mesh-map-0"/>
            </diffuse>
            <index_of_refraction>
              <float sid="ior">1.55</float>
            </index_of_refraction>
          </lambert>
        </technique>
      </profile_COMMON>
    </effect>
  </library_effects>
  <library_images>
    <image id="mcqueens_advertising_stand_diff_png" name="mcqueens_advertising_stand_diff_png">
      <init_from>mcqueens_advertising_stand_diff.png</init_from>
    </image>
  </library_images>
  <library_materials>
    <material id="Material__78-material" name="Material__78">
      <instance_effect url="#Material__78-effect"/>
    </material>
  </library_materials>
  <library_geometries>
    <geometry id="mcqueens_advertising_stand-mesh" name="mcqueens_advertising_stand">
      <mesh>
        <source id="mcqueens_advertising_stand-mesh-positions">
          <float_array id="mcqueens_advertising_stand-mesh-positions-array" count="630">6.55384 811.963 141.41 6.55384 800.4561 235.995 6.55387 -864.382 199.444 6.55387 -887.168 125.416 6.5538 922.3051 743.103 6.55379 916.548 884.314 6.55377 873.2561 921.1651 6.55379 525.835 882.749 6.55386 -949.5521 526.3341 6.55386 -970.4061 447.602 6.55384 -868.19 640.3861 6.55385 -915.26 586.5631 6.55387 -968.751 350.084 6.55383 -812.4581 674.9541 6.55387 -929.236 273.964 6.55383 -739.522 696.7611 6.55384 -654.858 697.6121 6.55387 -899.9841 45.5537 6.55387 -896.7271 17.8446 6.55388 -869.2551 8.58258 6.55381 -213.587 907.647 6.55383 -379.213 709.483 6.5538 27.4593 945.679 6.55379 317.39 960.6151 6.55383 752.018 1.49384 6.55384 799.778 13.8043 6.55384 814.351 52.9397 6.55383 846.4541 292.327 6.55379 902.1641 911.324 6.55381 916.3021 613.8961 6.55382 885.129 536.7661 6.55382 881.0491 362.535 6.55382 893.3831 447.601 -14.4278 -864.382 199.444 -14.4278 800.4561 235.995 -14.4278 811.963 141.41 -14.4278 -887.168 125.416 -14.4279 873.2561 921.1651 -14.4279 916.548 884.314 -14.4278 922.3051 743.103 -14.4279 525.835 882.749 -14.4278 -868.19 640.3861 -14.4278 -970.4061 447.602 -14.4278 -949.5521 526.3341 -14.4278 -915.26 586.5631 -14.4278 -812.4581 674.9541 -14.4278 -968.751 350.084 -14.4278 -739.522 696.7611 -14.4278 -929.236 273.964 -14.4278 -654.858 697.6121 -14.4278 -869.2551 8.58258 -14.4278 -896.7271 17.8446 -14.4278 -899.9841 45.5537 -14.4278 -379.213 709.483 -14.4278 -213.587 907.647 -14.4279 27.4594 945.679 -14.4279 317.39 960.6151 -14.4278 814.351 52.9397 -14.4278 799.778 13.8043 -14.4278 752.018 1.49384 -14.4278 846.4541 292.327 -14.4279 902.1641 911.324 -14.4278 916.3021 613.8961 -14.4278 885.129 536.7661 -14.4278 893.3831 447.601 -14.4278 881.0491 362.535 -14.4278 -864.382 199.444 -14.4278 -887.168 125.416 6.55387 -887.168 125.416 6.55387 -864.382 199.444 -14.4278 811.963 141.41 -14.4278 800.4561 235.995 6.55384 800.4561 235.995 6.55384 811.963 141.41 -14.4279 873.2561 921.1651 -14.4279 525.835 882.749 6.55379 525.835 882.749 6.55377 873.2561 921.1651 -14.4278 922.3051 743.103 -14.4279 916.548 884.314 6.55379 916.548 884.314 6.5538 922.3051 743.103 -14.4278 -868.19 640.3861 -14.4278 -915.26 586.5631 6.55385 -915.26 586.5631 6.55384 -868.19 640.3861 -14.4278 -949.5521 526.3341 6.55386 -949.5521 526.3341 -14.4278 -970.4061 447.602 6.55386 -970.4061 447.602 -14.4278 -812.4581 674.9541 6.55383 -812.4581 674.9541 -14.4278 -968.751 350.084 6.55387 -968.751 350.084 -14.4278 -929.236 273.964 6.55387 -929.236 273.964 -14.4278 -739.522 696.7611 6.55383 -739.522 696.7611 -14.4278 -654.858 697.6121 6.55384 -654.858 697.6121 -14.4278 -864.382 199.444 6.55387 -864.382 199.444 -14.4278 -899.9841 45.5537 -14.4278 -896.7271 17.8446 6.55387 -896.7271 17.8446 6.55387 -899.9841 45.5537 -14.4278 -896.7271 17.8446 -14.4278 -869.2551 8.58258 6.55388 -869.2551 8.58258 6.55387 -896.7271 17.8446 -14.4278 -213.587 907.647 -14.4278 -379.213 709.483 6.55383 -379.213 709.483 6.55381 -213.587 907.647 -14.4279 317.39 960.6151 6.55379 317.39 960.6151 -14.4279 27.4594 945.679 6.5538 27.4593 945.679 -14.4278 752.018 1.49384 -14.4278 799.778 13.8043 6.55384 799.778 13.8043 6.55383 752.018 1.49384 -14.4278 799.778 13.8043 -14.4278 814.351 52.9397 6.55384 814.351 52.9397 6.55384 799.778 13.8043 -14.4278 800.4561 235.995 -14.4278 846.4541 292.327 6.55383 846.4541 292.327 6.55384 800.4561 235.995 -14.4278 -379.213 709.483 6.55383 -379.213 709.483 -14.4279 902.1641 911.324 6.55379 902.1641 911.324 -14.4278 916.3021 613.8961 6.55381 916.3021 613.8961 -14.4278 885.129 536.7661 6.55382 885.129 536.7661 -14.4278 881.0491 362.535 6.55382 881.0491 362.535 -14.4278 893.3831 447.601 6.55382 893.3831 447.601 -31.3562 -293.338 7.94385 -32.0672 -217.292 3.91168 -12.3013 -217.292 3.91168 -11.5903 -293.338 7.94385 -142.538 -668.275 11.7684 -155.582 -656.783 11.1592 -143.156 -668.2741 94.9571 -12.3013 -293.338 486.022 -32.0672 -293.338 486.022 -156.184 -656.783 94.4371 -32.0672 -217.292 486.022 -12.3013 -217.292 486.022 -12.3013 -217.292 3.91168 -32.0672 -217.292 3.91168 -32.0672 -217.292 486.022 -32.0672 -293.338 486.022 -12.3013 -293.338 486.022 -12.3013 -217.292 486.022 -143.156 -668.2741 94.9571 -156.184 -656.783 94.4371 -155.582 -656.783 11.1592 -142.538 -668.275 11.7684 -32.0672 -217.292 486.022 -32.0672 -217.292 3.91168 -31.3562 -293.338 7.94385 -32.0672 -293.338 486.022 -142.538 -668.275 11.7684 -11.5903 -293.338 7.94385 -12.3013 -293.338 486.022 -143.156 -668.2741 94.9571 -156.184 -656.783 94.4371 -32.0672 -293.338 486.022 -31.3562 -293.338 7.94385 -155.582 -656.783 11.1592 -31.3563 358.015 7.94366 -11.5904 358.015 7.94366 -12.3013 281.969 3.9115 -32.0673 281.969 3.9115 -155.583 721.4611 11.1587 -142.538 732.952 11.7679 -143.156 732.952 94.9565 -156.185 721.4611 94.4365 -32.0673 358.015 486.022 -12.3014 358.015 486.022 -32.0673 281.969 486.022 -32.0673 281.969 3.9115 -12.3013 281.969 3.9115 -12.3014 281.969 486.022 -32.0673 281.969 486.022 -12.3014 281.969 486.022 -12.3014 358.015 486.022 -32.0673 358.015 486.022 -143.156 732.952 94.9565 -142.538 732.952 11.7679 -155.583 721.4611 11.1587 -156.185 721.4611 94.4365 -32.0673 281.969 486.022 -32.0673 358.015 486.022 -31.3563 358.015 7.94366 -32.0673 281.969 3.9115 -142.538 732.952 11.7679 -143.156 732.952 94.9565 -12.3014 358.015 486.022 -11.5904 358.015 7.94366 -156.185 721.4611 94.4365 -155.583 721.4611 11.1587 -31.3563 358.015 7.94366 -32.0673 358.015 486.022</float_array>
          <technique_common>
            <accessor source="#mcqueens_advertising_stand-mesh-positions-array" count="210" stride="3">
              <param name="X" type="float"/>
              <param name="Y" type="float"/>
              <param name="Z" type="float"/>
            </accessor>
          </technique_common>
        </source>
        <source id="mcqueens_advertising_stand-mesh-normals">
          <float_array id="mcqueens_advertising_stand-mesh-normals-array" count="579">1 0 0 1 0 0 1 -4.2406e-7 0 1 0 1.76167e-7 1 4.24344e-7 0 1 0 1.29339e-7 1 0 0 1 1.69288e-7 0 1 0 0 1 0 0 1 0 0 1 -1.37026e-7 1.48477e-7 1 -3.86136e-7 0 1 0 0 1 0 0 1 0 0 1 -2.16731e-7 0 1 0 1.39102e-7 1 0 0 1 0 0 1 0 0 1 0 0 1 0 -2.17008e-7 1 0 2.97598e-7 1 -8.59319e-7 -4.3991e-7 1 0 0 1 0 0 1 0 1.20001e-7 1 4.11424e-7 0 1 0 0 1 0 0 -1 0 0 -1 0 0 -1 -6.20576e-7 -7.34613e-7 -1 0 -5.45742e-7 -1 0 0 -1 0 0 -1 0 0 -1 0 0 -1 0 0 -1 0 0 -1 -1.31267e-7 0 -1 -1.86021e-7 -1.46249e-6 -1 0 0 -1 0 0 -1 0 0 -1 0 0 -1 0 0 -1 0 0 -1 0 0 -1 0 0 -1 2.48525e-7 0 -1 0 -4.17158e-7 -1 0 0 -1 0 0 0 -0.9557498 0.294181 0 -0.9739253 0.2268691 0 -0.973926 0.226866 0 -0.9557499 0.2941806 0 0.9972615 0.07395547 0 0.992681 0.1207662 0 0.992681 0.1207665 0 0.9972614 0.07395732 0 0.108779 0.994066 0 0.1233748 0.9923602 0 0.1233714 0.9923606 0 0.1087834 0.9940655 0 0.9999961 -0.002840161 0 0.9650804 0.2619537 0 0.9650809 0.2619519 0 0.9999961 -0.002839922 0 -0.6470451 0.7624518 0 -0.814994 0.5794693 0 -0.8149973 0.5794649 0 -0.6470507 0.7624469 0 -0.9255692 0.3785787 0 -0.9255716 0.3785728 0 -0.9926909 0.1206852 0 -0.9926915 0.1206803 0 -0.4103609 0.9119233 0 -0.4103667 0.9119207 0 -0.969432 -0.2453605 0 -0.96943 -0.2453683 0 -0.8267518 -0.5625669 0 -0.8267495 -0.5625703 0 -0.1497212 0.9887282 0 -0.1497269 0.9887274 0 -0.02654224 0.9996478 0 -0.02654206 0.9996477 0 -0.7543356 -0.6564891 0 -0.7543354 -0.6564893 0 -0.9997785 0.02105319 0 -0.9931622 -0.1167432 0 -0.9931625 -0.1167405 0 -0.9997783 0.02105402 0 -0.3194749 -0.9475948 0 -0.1640288 -0.9864556 0 -0.1640314 -0.9864552 0 -0.3194749 -0.9475948 0 -0.4930121 0.8700226 0 -0.7672887 0.6413018 0 -0.7672887 0.6413019 -1.98981e-7 -0.4930071 0.8700253 -2.26354e-7 0.152419 0.9883161 0 0.152422 0.9883156 -8.06432e-6 -0.1037925 0.9945991 -8.02894e-6 -0.103792 0.9945991 0 0.1236264 -0.992329 0 0.2495983 -0.9683495 0 0.2495983 -0.9683495 0 0.123629 -0.9923285 0 0.9371358 -0.3489651 0 0.9864605 -0.1639994 0 0.9864615 -0.163993 0 0.9371358 -0.3489651 0 0.7745766 -0.6324802 0 0.8412019 -0.5407212 0 0.841205 -0.5407164 0 0.774577 -0.6324796 0 -0.0430262 0.9990741 0 -0.04302626 0.9990741 0 0.6478696 0.7617513 0 0.6478756 0.7617462 0 0.9769213 -0.2136 0 0.976922 -0.2135964 0 0.9893773 -0.1453706 0 0.989376 -0.1453797 0 0.9550663 -0.2963923 0 0.9550683 -0.2963859 0 0.9996661 -0.02584081 0 0.9996663 -0.02583634 3.52905e-4 -0.02971959 -0.9995582 0 -0.05294835 -0.9985973 0 -0.05294835 -0.9985973 0 -0.03407919 -0.9994192 0.02868187 -0.01869964 -0.9994137 0.02988535 -0.01905608 -0.9993717 -0.4961527 -0.5519972 0.6701728 0 -0.721836 0.6920643 -0.008589386 -0.7205893 0.693309 -0.5076211 -0.5453283 0.6670367 0 1 0 0 0 1 -0.6613712 -0.7500436 -0.004781186 -0.6611236 -0.7502614 -0.004843473 -0.6609222 -0.7504385 -0.004899978 -0.6611687 -0.7502219 -0.004830062 -0.9999988 -9.38705e-4 -0.001337885 -0.9999563 -0.009349167 0 -0.9999644 -0.00844115 -1.44445e-4 -0.999999 0 -0.001487195 0.9431018 -0.3324819 0.003864884 0.9440817 -0.3297086 0.001403987 0.9439113 -0.3301945 0.001834332 0.9438145 -0.3304695 0.002076566 0.9418336 -0.3360068 0.007000565 0.9430904 -0.3325136 0.003892362 -0.9460903 0.3238721 -0.004493355 -0.9458736 0.3245323 -0.001406669 -0.9459136 0.3244131 -0.001968026 -0.9459275 0.3243711 -0.002163648 -0.9462487 0.3233679 -0.006840288 -0.946094 0.3238603 -0.004548728 3.52954e-4 0.02971905 -0.9995583 0 0.03407877 -0.9994192 0 0.05294823 -0.9985973 0 0.05294823 -0.9985973 0.02988529 0.0190553 -0.9993718 0.02868187 0.01869887 -0.9994137 -0.4961227 0.5520154 0.6701802 -0.5075908 0.545347 0.6670444 -0.008590519 0.7205878 0.6933106 0 0.7218346 0.6920657 0 -1 0 -0.6612836 0.7501208 -0.00479871 -0.6608597 0.7504934 -0.004909515 -0.6613388 0.7500723 -0.004780948 -0.9999988 9.38703e-4 -0.001337885 -0.9999989 0 -0.001487195 -0.9999644 0.00844115 -1.44445e-4 -0.9999564 0.009349107 0 0.9430923 0.3325087 0.003888368 0.9418353 0.3360022 0.006996095 0.9438164 0.3304639 0.002073347 0.9438381 0.3304024 0.002019166 0.9440818 0.3297084 0.001404106 0.9431017 0.332482 0.003864586 -0.9460937 -0.323861 -0.004548549 -0.9462481 -0.3233693 -0.006840288 -0.9459239 -0.3243819 -0.002116739 -0.9459267 -0.3243733 -0.002154827 -0.9458732 -0.3245337 -0.001406669 -0.9460899 -0.3238729 -0.004493236</float_array>
          <technique_common>
            <accessor source="#mcqueens_advertising_stand-mesh-normals-array" count="193" stride="3">
              <param name="X" type="float"/>
              <param name="Y" type="float"/>
              <param name="Z" type="float"/>
            </accessor>
          </technique_common>
        </source>
        <source id="mcqueens_advertising_stand-mesh-map-0">
          <float_array id="mcqueens_advertising_stand-mesh-map-0-array" count="984">0.940643 0.07723701 0.934384 0.1268789 0.06022596 0.103863 0.06022596 0.103863 0.04843091 0.06493699 0.940643 0.07723701 0.997205 0.393452 0.993858 0.467592 0.97104 0.486843 0.97104 0.486843 0.78869 0.465873 0.997205 0.393452 0.01475089 0.275325 0.003980994 0.233933 0.05721396 0.335402 0.05721396 0.335402 0.03261995 0.30703 0.01475089 0.275325 0.003980994 0.233933 0.005073904 0.1827279 0.08640098 0.353682 0.08640098 0.353682 0.05721396 0.335402 0.003980994 0.233933 0.02599895 0.1428459 0.124651 0.365301 0.08640098 0.353682 0.08640098 0.353682 0.005073904 0.1827279 0.02599895 0.1428459 0.02599895 0.1428459 0.06022596 0.103863 0.169108 0.365943 0.169108 0.365943 0.124651 0.365301 0.02599895 0.1428459 0.041884 0.02297002 0.04365789 0.008427023 0.05810499 0.003627002 0.78869 0.465873 0.400346 0.477249 0.313828 0.372809 0.526838 0.497774 0.400346 0.477249 0.78869 0.465873 0.78869 0.465873 0.679052 0.5062831 0.526838 0.497774 0.909486 0.003627002 0.934537 0.01020091 0.942101 0.03078502 0.934384 0.1268789 0.958409 0.156566 0.313828 0.372809 0.06022596 0.103863 0.934384 0.1268789 0.313828 0.372809 0.313828 0.372809 0.169108 0.365943 0.06022596 0.103863 0.942101 0.03078502 0.940643 0.07723701 0.04843091 0.06493699 0.04843091 0.06493699 0.041884 0.02297002 0.942101 0.03078502 0.909486 0.003627002 0.942101 0.03078502 0.041884 0.02297002 0.041884 0.02297002 0.05810499 0.003627002 0.909486 0.003627002 0.993858 0.467592 0.986242 0.481742 0.97104 0.486843 0.994349 0.325589 0.997205 0.393452 0.78869 0.465873 0.78869 0.465873 0.313828 0.372809 0.994349 0.325589 0.313828 0.372809 0.978157 0.285015 0.994349 0.325589 0.958409 0.156566 0.976414 0.1935129 0.982695 0.2382119 0.958409 0.156566 0.982695 0.2382119 0.313828 0.372809 0.982695 0.2382119 0.978157 0.285015 0.313828 0.372809 0.129516 0.89193 0.936433 0.870715 0.940541 0.91615 0.940541 0.91615 0.120039 0.927462 0.129516 0.89193 0.956499 0.54109 0.976745 0.558125 0.986078 0.625784 0.986078 0.625784 0.796663 0.56083 0.956499 0.54109 0.1345109 0.677038 0.08331996 0.766728 0.09439599 0.729447 0.09439599 0.729447 0.111523 0.701468 0.1345109 0.677038 0.161117 0.662126 0.08277899 0.813619 0.08331996 0.766728 0.08331996 0.766728 0.1345109 0.677038 0.161117 0.662126 0.161117 0.662126 0.195396 0.6537711 0.100217 0.851864 0.100217 0.851864 0.08277899 0.813619 0.161117 0.662126 0.234749 0.6544401 0.129516 0.89193 0.100217 0.851864 0.100217 0.851864 0.195396 0.6537711 0.234749 0.6544401 0.129836 0.983348 0.117825 0.978227 0.115179 0.965724 0.36605 0.647595 0.446668 0.552413 0.796663 0.56083 0.796663 0.56083 0.446668 0.552413 0.55972 0.533087 0.55972 0.533087 0.696542 0.524637 0.796663 0.56083 0.940862 0.95859 0.933558 0.976674 0.911487 0.983348 0.36605 0.647595 0.957383 0.842874 0.936433 0.870715 0.36605 0.647595 0.936433 0.870715 0.129516 0.89193 0.129516 0.89193 0.234749 0.6544401 0.36605 0.647595 0.120039 0.927462 0.940541 0.91615 0.940862 0.95859 0.940862 0.95859 0.115179 0.965724 0.120039 0.927462 0.115179 0.965724 0.940862 0.95859 0.911487 0.983348 0.911487 0.983348 0.129836 0.983348 0.115179 0.965724 0.956499 0.54109 0.967296 0.545664 0.976745 0.558125 0.796663 0.56083 0.986078 0.625784 0.985574 0.687667 0.985574 0.687667 0.36605 0.647595 0.796663 0.56083 0.985574 0.687667 0.973185 0.724985 0.36605 0.647595 0.977786 0.767763 0.973915 0.808396 0.957383 0.842874 0.36605 0.647595 0.977786 0.767763 0.957383 0.842874 0.36605 0.647595 0.973185 0.724985 0.977786 0.767763 0.129516 0.89193 0.120039 0.927462 0.109972 0.926683 0.109972 0.926683 0.119448 0.893942 0.129516 0.89193 0.940541 0.91615 0.936433 0.870715 0.946405 0.873213 0.946405 0.873213 0.950434 0.916507 0.940541 0.91615 0.956499 0.54109 0.796663 0.56083 0.797327 0.550773 0.797327 0.550773 0.956419 0.531253 0.956499 0.54109 0.986078 0.625784 0.976745 0.558125 0.986061 0.555029 0.986061 0.555029 0.996138 0.625027 0.986078 0.625784 0.1345109 0.677038 0.111523 0.701468 0.103778 0.695052 0.103778 0.695052 0.128666 0.668952 0.1345109 0.677038 0.111523 0.701468 0.09439599 0.729447 0.08534097 0.725133 0.08534097 0.725133 0.103778 0.695052 0.111523 0.701468 0.09439599 0.729447 0.08331996 0.766728 0.073426 0.765026 0.073426 0.765026 0.08534097 0.725133 0.09439599 0.729447 0.161117 0.662126 0.1345109 0.677038 0.128666 0.668952 0.128666 0.668952 0.1577979 0.652663 0.161117 0.662126 0.08331996 0.766728 0.08277899 0.813619 0.07303595 0.815154 0.07303595 0.815154 0.073426 0.765026 0.08331996 0.766728 0.08277899 0.813619 0.100217 0.851864 0.09132099 0.855965 0.09132099 0.855965 0.07303595 0.815154 0.08277899 0.813619 0.195396 0.6537711 0.161117 0.662126 0.1577979 0.652663 0.1577979 0.652663 0.194347 0.643813 0.195396 0.6537711 0.234749 0.6544401 0.195396 0.6537711 0.194347 0.643813 0.194347 0.643813 0.234306 0.644357 0.234749 0.6544401 0.100217 0.851864 0.129516 0.89193 0.119448 0.893942 0.119448 0.893942 0.09132099 0.855965 0.100217 0.851864 0.115179 0.965724 0.117825 0.978227 0.111982 0.984631 0.111982 0.984631 0.105446 0.967336 0.115179 0.965724 0.117825 0.978227 0.129836 0.983348 0.129314 0.993359 0.129314 0.993359 0.111982 0.984631 0.117825 0.978227 0.446668 0.552413 0.36605 0.647595 0.361877 0.63857 0.361877 0.63857 0.441893 0.543905 0.446668 0.552413 0.796663 0.56083 0.696542 0.524637 0.697577 0.514712 0.697577 0.514712 0.797327 0.550773 0.796663 0.56083 0.696542 0.524637 0.55972 0.533087 0.558465 0.523058 0.558465 0.523058 0.697577 0.514712 0.696542 0.524637 0.55972 0.533087 0.446668 0.552413 0.441893 0.543905 0.441893 0.543905 0.558465 0.523058 0.55972 0.533087 0.911487 0.983348 0.933558 0.976674 0.93991 0.983236 0.93991 0.983236 0.91195 0.993407 0.911487 0.983348 0.933558 0.976674 0.940862 0.95859 0.950318 0.960741 0.950318 0.960741 0.93991 0.983236 0.933558 0.976674 0.936433 0.870715 0.957383 0.842874 0.966407 0.847229 0.966407 0.847229 0.946405 0.873213 0.936433 0.870715 0.36605 0.647595 0.234749 0.6544401 0.234306 0.644357 0.234306 0.644357 0.361877 0.63857 0.36605 0.647595 0.120039 0.927462 0.115179 0.965724 0.105446 0.967336 0.105446 0.967336 0.109972 0.926683 0.120039 0.927462 0.940862 0.95859 0.940541 0.91615 0.950434 0.916507 0.950434 0.916507 0.950318 0.960741 0.940862 0.95859 0.129836 0.983348 0.911487 0.983348 0.91195 0.993407 0.91195 0.993407 0.129314 0.993359 0.129836 0.983348 0.976745 0.558125 0.967296 0.545664 0.973808 0.538573 0.973808 0.538573 0.986061 0.555029 0.976745 0.558125 0.967296 0.545664 0.956499 0.54109 0.956419 0.531253 0.956419 0.531253 0.973808 0.538573 0.967296 0.545664 0.985574 0.687667 0.986078 0.625784 0.996138 0.625027 0.996138 0.625027 0.995493 0.688598 0.985574 0.687667 0.973185 0.724985 0.985574 0.687667 0.995493 0.688598 0.995493 0.688598 0.983431 0.725991 0.973185 0.724985 0.957383 0.842874 0.973915 0.808396 0.983531 0.810806 0.983531 0.810806 0.966407 0.847229 0.957383 0.842874 0.973915 0.808396 0.977786 0.767763 0.987667 0.767995 0.987667 0.767995 0.983531 0.810806 0.973915 0.808396 0.977786 0.767763 0.973185 0.724985 0.983431 0.725991 0.983431 0.725991 0.987667 0.767995 0.977786 0.767763 0.01744598 0.667155 0.01690596 0.70177 0.004391968 0.701927 0.004391968 0.701927 0.004737973 0.671587 0.01744598 0.667155 0.01744598 0.667155 0.004737973 0.671587 0.004737973 0.400829 0.004737973 0.400829 0.01570492 0.405303 0.01744598 0.667155 0.317084 0.445678 0.07101196 0.71156 0.06466597 0.700899 0.06466597 0.700899 0.306863 0.441221 0.317084 0.445678 0.01679193 0.702804 0.004299998 0.703167 0.004299998 0.39946 0.004299998 0.39946 0.01679193 0.3991 0.01679193 0.702804 0.01679193 0.702804 0.06466597 0.700899 0.07101196 0.71156 0.07101196 0.71156 0.01679193 0.715793 0.01679193 0.702804 0.317084 0.445678 0.306863 0.441221 0.306863 0.398733 0.306863 0.398733 0.317084 0.39896 0.317084 0.445678 0.01679193 0.702804 0.01679193 0.3991 0.06466597 0.399083 0.06466597 0.399083 0.06466597 0.700899 0.01679193 0.702804 0.368901 0.470496 0.36967 0.612816 0.195147 0.612816 0.195147 0.612816 0.344409 0.470496 0.368901 0.470496 0.306863 0.441221 0.06466597 0.700899 0.06466597 0.399083 0.06466597 0.399083 0.306863 0.398733 0.306863 0.441221 0.01713591 0.647988 0.005385935 0.652086 0.004669964 0.698495 0.004669964 0.698495 0.01641988 0.694397 0.01713591 0.647988 0.01713591 0.647988 0.01552593 0.405881 0.005385935 0.401745 0.005385935 0.401745 0.005385935 0.652086 0.01713591 0.647988 0.317084 0.445678 0.306863 0.441221 0.06466597 0.700899 0.06466597 0.700899 0.07101196 0.71156 0.317084 0.445678 0.01679193 0.702804 0.01679193 0.3991 0.004299998 0.39946 0.004299998 0.39946 0.004299998 0.703167 0.01679193 0.702804 0.01679193 0.702804 0.01679193 0.715793 0.07101196 0.71156 0.07101196 0.71156 0.06466597 0.700899 0.01679193 0.702804 0.317084 0.445678 0.317084 0.39896 0.306863 0.398733 0.306863 0.398733 0.306863 0.441221 0.317084 0.445678 0.01679193 0.702804 0.06466597 0.700899 0.06466597 0.399083 0.06466597 0.399083 0.01679193 0.3991 0.01679193 0.702804 0.368901 0.470496 0.344409 0.470496 0.195147 0.612816 0.195147 0.612816 0.36967 0.612816 0.368901 0.470496 0.306863 0.441221 0.306863 0.398733 0.06466597 0.399083 0.06466597 0.399083 0.06466597 0.700899 0.306863 0.441221</float_array>
          <technique_common>
            <accessor source="#mcqueens_advertising_stand-mesh-map-0-array" count="492" stride="2">
              <param name="S" type="float"/>
              <param name="T" type="float"/>
            </accessor>
          </technique_common>
        </source>
        <vertices id="mcqueens_advertising_stand-mesh-vertices">
          <input semantic="POSITION" source="#mcqueens_advertising_stand-mesh-positions"/>
        </vertices>
        <triangles material="Material__78-material" count="164">
          <input semantic="VERTEX" source="#mcqueens_advertising_stand-mesh-vertices" offset="0"/>
          <input semantic="NORMAL" source="#mcqueens_advertising_stand-mesh-normals" offset="1"/>
          <input semantic="TEXCOORD" source="#mcqueens_advertising_stand-mesh-map-0" offset="2" set="0"/>
          <p>0 0 0 1 0 1 2 0 2 2 1 3 3 1 4 0 1 5 4 2 6 5 2 7 6 2 8 6 3 9 7 3 10 4 3 11 8 4 12 9 4 13 10 4 14 10 5 15 11 5 16 8 5 17 9 6 18 12 6 19 13 6 20 13 7 21 10 7 22 9 7 23 14 8 24 15 8 25 13 8 26 13 9 27 12 9 28 14 9 29 14 10 30 2 10 31 16 10 32 16 11 33 15 11 34 14 11 35 17 12 36 18 12 37 19 12 38 7 13 39 20 13 40 21 13 41 22 14 42 20 14 43 7 14 44 7 15 45 23 15 46 22 15 47 24 16 48 25 16 49 26 16 50 1 17 51 27 17 52 21 17 53 2 18 54 1 18 55 21 18 56 21 19 57 16 19 58 2 19 59 26 20 60 0 20 61 3 20 62 3 21 63 17 21 64 26 21 65 24 22 66 26 22 67 17 22 68 17 23 69 19 23 70 24 23 71 5 24 72 28 24 73 6 24 74 29 25 75 4 25 76 7 25 77 7 26 78 21 26 79 29 26 80 21 27 81 30 27 82 29 27 83 27 28 84 31 28 85 32 28 86 27 29 87 32 29 88 21 29 89 32 30 90 30 30 91 21 30 92 33 31 93 34 31 94 35 31 95 35 32 96 36 32 97 33 32 98 37 33 99 38 33 100 39 33 101 39 34 102 40 34 103 37 34 104 41 32 105 42 32 106 43 32 107 43 32 108 44 32 109 41 32 110 45 35 111 46 35 112 42 35 113 42 36 114 41 36 115 45 36 116 45 37 117 47 37 118 48 37 119 48 32 120 46 32 121 45 32 122 49 38 123 33 38 124 48 38 125 48 39 126 47 39 127 49 39 128 50 40 129 51 40 130 52 40 131 53 41 132 54 41 133 40 41 134 40 42 135 54 42 136 55 42 137 55 43 138 56 43 139 40 43 140 57 44 141 58 44 142 59 44 143 53 45 144 60 45 145 34 45 146 53 46 147 34 46 148 33 46 149 33 47 150 49 47 151 53 47 152 36 48 153 35 48 154 57 48 155 57 49 156 52 49 157 36 49 158 52 32 159 57 32 160 59 32 161 59 50 162 50 50 163 52 50 164 37 32 165 61 32 166 38 32 167 40 51 168 39 51 169 62 51 170 62 52 171 53 52 172 40 52 173 62 32 174 63 32 175 53 32 176 64 53 177 65 53 178 60 53 179 53 32 180 64 32 181 60 32 182 53 54 183 63 54 184 64 54 185 66 55 186 67 56 187 68 57 188 68 57 189 69 58 190 66 55 191 70 59 192 71 60 193 72 61 194 72 61 195 73 62 196 70 59 197 74 63 198 75 64 199 76 65 200 76 65 201 77 66 202 74 63 203 78 67 204 79 68 205 80 69 206 80 69 207 81 70 208 78 67 209 82 71 210 83 72 211 84 73 212 84 73 213 85 74 214 82 71 215 83 72 216 86 75 217 87 76 218 87 76 219 84 73 220 83 72 221 86 75 222 88 77 223 89 78 224 89 78 225 87 76 226 86 75 227 90 79 228 82 71 229 85 74 230 85 74 231 91 80 232 90 79 233 88 77 234 92 81 235 93 82 236 93 82 237 89 78 238 88 77 239 92 81 240 94 83 241 95 84 242 95 84 243 93 82 244 92 81 245 96 85 246 90 79 247 91 80 248 91 80 249 97 86 250 96 85 251 98 87 252 96 85 253 97 86 254 97 86 255 99 88 256 98 87 257 94 83 258 100 89 259 101 90 260 101 90 261 95 84 262 94 83 263 102 91 264 103 92 265 104 93 266 104 93 267 105 94 268 102 91 269 106 95 270 107 96 271 108 97 272 108 97 273 109 98 274 106 95 275 110 99 276 111 100 277 112 101 278 112 101 279 113 102 280 110 99 281 75 64 282 114 103 283 115 104 284 115 104 285 76 65 286 75 64 287 114 103 288 116 105 289 117 106 290 117 106 291 115 104 292 114 103 293 116 105 294 110 99 295 113 102 296 113 102 297 117 106 298 116 105 299 118 107 300 119 108 301 120 109 302 120 109 303 121 110 304 118 107 305 122 111 306 123 112 307 124 113 308 124 113 309 125 114 310 122 111 311 126 115 312 127 116 313 128 117 314 128 117 315 129 118 316 126 115 317 130 119 318 98 87 319 99 88 320 99 88 321 131 120 322 130 119 323 67 56 324 102 91 325 105 94 326 105 94 327 68 57 328 67 56 329 123 112 330 70 59 331 73 62 332 73 62 333 124 113 334 123 112 335 107 96 336 118 107 337 121 110 338 121 110 339 108 97 340 107 96 341 79 68 342 132 121 343 133 122 344 133 122 345 80 69 346 79 68 347 132 121 348 74 63 349 77 66 350 77 66 351 133 122 352 132 121 353 134 123 354 78 67 355 81 70 356 81 70 357 135 124 358 134 123 359 136 125 360 134 123 361 135 124 362 135 124 363 137 126 364 136 125 365 127 116 366 138 127 367 139 128 368 139 128 369 128 117 370 127 116 371 138 127 372 140 129 373 141 130 374 141 130 375 139 128 376 138 127 377 140 129 378 136 125 379 137 126 380 137 126 381 141 130 382 140 129 383 142 131 384 143 132 385 144 133 386 144 133 387 145 134 388 142 131 389 142 131 390 145 134 391 146 135 392 146 135 393 147 136 394 142 131 395 148 137 396 149 138 397 150 139 398 150 139 399 151 140 400 148 137 401 152 141 402 153 141 403 154 141 404 154 141 405 155 141 406 152 141 407 156 142 408 157 142 409 158 142 410 158 142 411 159 142 412 156 142 413 160 143 414 161 143 415 162 144 416 162 145 417 163 145 418 160 146 419 164 147 420 165 148 421 166 149 422 166 149 423 167 150 424 164 147 425 168 151 426 169 152 427 170 153 428 170 154 429 171 155 430 168 156 431 172 157 432 173 158 433 174 159 434 174 160 435 175 161 436 172 162 437 176 163 438 177 164 439 178 165 440 178 165 441 179 166 442 176 163 443 176 163 444 180 167 445 181 168 446 181 168 447 177 164 448 176 163 449 182 169 450 183 170 451 184 171 452 184 171 453 185 172 454 182 169 455 186 173 456 187 173 457 188 173 458 188 173 459 189 173 460 186 173 461 190 142 462 191 142 463 192 142 464 192 142 465 193 142 466 190 142 467 194 174 468 195 175 469 196 175 470 196 176 471 197 176 472 194 176 473 198 177 474 199 178 475 200 179 476 200 179 477 201 180 478 198 177 479 202 181 480 203 182 481 204 183 482 204 184 483 205 185 484 202 186 485 206 187 486 207 188 487 208 189 488 208 190 489 209 191 490 206 192 491</p>
        </triangles>
      </mesh>
    </geometry>
  </library_geometries>
  <library_controllers>
    <controller id="Armature_mcqueens_advertising_stand-skin" name="Armature">
      <skin source="#mcqueens_advertising_stand-mesh">
        <bind_shape_matrix>1 0 0 0 0 1 1.42109e-14 0 0 -1.42109e-14 1 0 0 0 0 1</bind_shape_matrix>
        <source id="Armature_mcqueens_advertising_stand-skin-joints">
          <Name_array id="Armature_mcqueens_advertising_stand-skin-joints-array" count="3">Bone_stand_l Bone_stand_fwd Bone_stand_r</Name_array>
          <technique_common>
            <accessor source="#Armature_mcqueens_advertising_stand-skin-joints-array" count="3" stride="1">
              <param name="JOINT" type="name"/>
            </accessor>
          </technique_common>
        </source>
        <source id="Armature_mcqueens_advertising_stand-skin-bind_poses">
          <float_array id="Armature_mcqueens_advertising_stand-skin-bind_poses-array" count="48">100 0 0 22.5987 0 100 -1.19209e-5 -358.022 0 1.19209e-5 100 -284.459 0 0 0 1 100 0 0 3.34842 0 100 -1.19209e-5 -70.96072 0 1.19209e-5 100 -4.74287 0 0 0 1 100 0 0 22.5987 0 100 -1.19209e-5 293.3722 0 1.19209e-5 100 -284.4591 0 0 0 1</float_array>
          <technique_common>
            <accessor source="#Armature_mcqueens_advertising_stand-skin-bind_poses-array" count="3" stride="16">
              <param name="TRANSFORM" type="float4x4"/>
            </accessor>
          </technique_common>
        </source>
        <source id="Armature_mcqueens_advertising_stand-skin-weights">
          <float_array id="Armature_mcqueens_advertising_stand-skin-weights-array" count="234">1 1 1 1 1 1 1 1 1 1 1 1 1 1 1 1 1 1 1 1 1 1 1 1 1 1 1 1 1 1 1 1 1 1 1 1 1 1 1 1 1 1 1 1 1 1 1 1 1 1 1 1 1 1 1 1 1 1 1 1 1 1 1 1 1 1 1 1 1 1 1 1 1 1 1 1 1 1 1 1 1 1 1 1 1 1 1 1 1 1 1 1 1 1 1 1 1 1 1 1 1 1 1 1 1 1 1 1 1 1 1 1 1 1 1 1 1 1 1 1 1 1 1 1 1 1 1 1 1 1 1 1 1 1 1 1 1 1 1 1 1 1 0.5 0.5 1 1 0.5 0.5 1 1 1 0.5 0.5 0.5 0.5 1 1 1 1 1 1 0.5 0.5 0.5 0.5 1 1 1 1 1 1 1 0.5 0.5 0.5 0.5 1 0.5 0.5 0.5 0.5 1 1 0.5 0.5 0.5 0.5 1 0.5 0.5 0.5 0.5 1 1 1 1 1 1 0.5 0.5 0.5 0.5 1 1 1 1 1 1 0.5 0.5 0.5 0.5 1 1 1 1 1 0.5 0.5 0.5 0.5 1 1 1 0.5 0.5 0.5 0.5 1 1 0.5 0.5 0.5 0.5</float_array>
          <technique_common>
            <accessor source="#Armature_mcqueens_advertising_stand-skin-weights-array" count="234" stride="1">
              <param name="WEIGHT" type="float"/>
            </accessor>
          </technique_common>
        </source>
        <joints>
          <input semantic="JOINT" source="#Armature_mcqueens_advertising_stand-skin-joints"/>
          <input semantic="INV_BIND_MATRIX" source="#Armature_mcqueens_advertising_stand-skin-bind_poses"/>
        </joints>
        <vertex_weights count="210">
          <input semantic="JOINT" source="#Armature_mcqueens_advertising_stand-skin-joints" offset="0"/>
          <input semantic="WEIGHT" source="#Armature_mcqueens_advertising_stand-skin-weights" offset="1"/>
          <vcount>1 1 1 1 1 1 1 1 1 1 1 1 1 1 1 1 1 1 1 1 1 1 1 1 1 1 1 1 1 1 1 1 1 1 1 1 1 1 1 1 1 1 1 1 1 1 1 1 1 1 1 1 1 1 1 1 1 1 1 1 1 1 1 1 1 1 1 1 1 1 1 1 1 1 1 1 1 1 1 1 1 1 1 1 1 1 1 1 1 1 1 1 1 1 1 1 1 1 1 1 1 1 1 1 1 1 1 1 1 1 1 1 1 1 1 1 1 1 1 1 1 1 1 1 1 1 1 1 1 1 1 1 1 1 1 1 1 1 1 1 1 1 2 1 1 2 1 1 1 2 2 1 1 1 1 1 1 2 2 1 1 1 1 1 1 1 2 2 1 2 2 1 1 2 2 1 2 2 1 1 1 1 1 1 2 2 1 1 1 1 1 1 2 2 1 1 1 1 1 2 2 1 1 1 2 2 1 1 2 2 </vcount>
          <v>1 0 1 1 1 2 1 3 1 4 1 5 1 6 1 7 1 8 1 9 1 10 1 11 1 12 1 13 1 14 1 15 1 16 1 17 1 18 1 19 1 20 1 21 1 22 1 23 1 24 1 25 1 26 1 27 1 28 1 29 1 30 1 31 1 32 1 33 1 34 1 35 1 36 1 37 1 38 1 39 1 40 1 41 1 42 1 43 1 44 1 45 1 46 1 47 1 48 1 49 1 50 1 51 1 52 1 53 1 54 1 55 1 56 1 57 1 58 1 59 1 60 1 61 1 62 1 63 1 64 1 65 1 66 1 67 1 68 1 69 1 70 1 71 1 72 1 73 1 74 1 75 1 76 1 77 1 78 1 79 1 80 1 81 1 82 1 83 1 84 1 85 1 86 1 87 1 88 1 89 1 90 1 91 1 92 1 93 1 94 1 95 1 96 1 97 1 98 1 99 1 100 1 101 1 102 1 103 1 104 1 105 1 106 1 107 1 108 1 109 1 110 1 111 1 112 1 113 1 114 1 115 1 116 1 117 1 118 1 119 1 120 1 121 1 122 1 123 1 124 1 125 1 126 1 127 1 128 1 129 1 130 1 131 1 132 1 133 1 134 1 135 1 136 1 137 1 138 1 139 1 140 1 141 1 142 2 143 1 144 1 145 1 146 2 147 2 148 2 149 2 150 1 151 2 152 1 153 2 154 2 155 1 156 1 157 1 158 1 159 1 160 1 161 2 162 1 163 2 164 1 165 2 166 2 167 2 168 2 169 1 170 1 171 1 172 2 173 1 174 2 175 2 176 1 177 2 178 1 179 2 180 2 181 2 182 1 183 2 184 1 185 2 186 2 187 0 188 1 189 0 190 1 191 1 192 1 193 0 194 0 195 0 196 0 197 0 198 1 199 0 200 1 201 1 202 1 203 1 204 1 205 1 206 1 207 0 208 1 209 0 210 1 211 0 212 0 213 0 214 0 215 1 216 0 217 1 218 0 219 1 220 1 221 0 222 0 223 0 224 1 225 0 226 1 227 0 228 0 229 0 230 1 231 0 232 1 233</v>
        </vertex_weights>
      </skin>
    </controller>
  </library_controllers>
  <library_visual_scenes>
    <visual_scene id="Scene" name="Scene">
      <node id="Armature" name="Armature" type="NODE">
        <matrix sid="transform">0.01 0 0 0 0 0.01 1.19209e-9 0 0 -1.19209e-9 0.01 0 0 0 0 1</matrix>
        <node id="Armature_Bone_stand_fwd" name="Bone_stand_fwd" sid="Bone_stand_fwd" type="JOINT">
          <matrix sid="transform">1 0 0 -3.34842 0 0.9999999 0 70.9607 0 0 1 4.74287 0 0 0 1</matrix>
          <node id="Armature_Bone_stand_l" name="Bone_stand_l" sid="Bone_stand_l" type="JOINT">
            <matrix sid="transform">1 0 0 -19.25028 0 1 0 287.0613 0 0 1 279.7162 0 0 0 1</matrix>
            <extra>
              <technique profile="blender">
                <tip_x sid="tip_x" type="float">0</tip_x>
                <tip_y sid="tip_y" type="float">401.2679</tip_y>
                <tip_z sid="tip_z" type="float">0</tip_z>
              </technique>
            </extra>
          </node>
          <node id="Armature_Bone_stand_r" name="Bone_stand_r" sid="Bone_stand_r" type="JOINT">
            <matrix sid="transform">1 0 0 -19.25028 0 1 0 -364.3329 0 0 1 279.7162 0 0 0 1</matrix>
            <extra>
              <technique profile="blender">
                <tip_x sid="tip_x" type="float">0</tip_x>
                <tip_y sid="tip_y" type="float">401.2679</tip_y>
                <tip_z sid="tip_z" type="float">0</tip_z>
              </technique>
            </extra>
          </node>
          <extra>
            <technique profile="blender">
              <tip_x sid="tip_x" type="float">0</tip_x>
              <tip_y sid="tip_y" type="float">401.2679</tip_y>
              <tip_z sid="tip_z" type="float">0</tip_z>
            </technique>
          </extra>
        </node>
        <node id="mcqueens_advertising_stand" name="mcqueens_advertising_stand" type="NODE">
          <matrix sid="transform">1 0 0 0 0 1 0 0 0 0 1 0 0 0 0 1</matrix>
          <instance_controller url="#Armature_mcqueens_advertising_stand-skin">
            <skeleton>#Armature_Bone_stand_fwd</skeleton>
            <bind_material>
              <technique_common>
                <instance_material symbol="Material__78-material" target="#Material__78-material">
                  <bind_vertex_input semantic="mcqueens_advertising_stand-mesh-map-0" input_semantic="TEXCOORD" input_set="0"/>
                </instance_material>
              </technique_common>
            </bind_material>
          </instance_controller>
        </node>
      </node>
    </visual_scene>
  </library_visual_scenes>
  <scene>
    <instance_visual_scene url="#Scene"/>
  </scene>
</COLLADA>